<svg width="2214" height="2210" xmlns="http://www.w3.org/2000/svg" xmlns:xlink="http://www.w3.org/1999/xlink" xml:space="preserve" overflow="hidden"><defs><filter id="fx0" x="-10%" y="-10%" width="120%" height="120%" filterUnits="userSpaceOnUse" primitiveUnits="userSpaceOnUse"><feComponentTransfer color-interpolation-filters="sRGB"><feFuncR type="discrete" tableValues="0.000000 0.000000"/><feFuncG type="discrete" tableValues="0.000000 0.000000"/><feFuncB type="discrete" tableValues="0.000000 0.000000"/><feFuncA type="linear" slope="0.400000" intercept="0.000000"/></feComponentTransfer><feGaussianBlur stdDeviation="6.111111 6.111111"/></filter><filter id="fx1" x="-10%" y="-10%" width="120%" height="120%" filterUnits="userSpaceOnUse" primitiveUnits="userSpaceOnUse"><feComponentTransfer color-interpolation-filters="sRGB"><feFuncR type="discrete" tableValues="0.000000 0.000000"/><feFuncG type="discrete" tableValues="0.000000 0.000000"/><feFuncB type="discrete" tableValues="0.000000 0.000000"/><feFuncA type="linear" slope="0.400000" intercept="0.000000"/></feComponentTransfer><feGaussianBlur stdDeviation="6.111111 6.111111"/></filter><filter id="fx2" x="-10%" y="-10%" width="120%" height="120%" filterUnits="userSpaceOnUse" primitiveUnits="userSpaceOnUse"><feComponentTransfer color-interpolation-filters="sRGB"><feFuncR type="discrete" tableValues="0.000000 0.000000"/><feFuncG type="discrete" tableValues="0.000000 0.000000"/><feFuncB type="discrete" tableValues="0.000000 0.000000"/><feFuncA type="linear" slope="0.400000" intercept="0.000000"/></feComponentTransfer><feGaussianBlur stdDeviation="6.111111 6.111111"/></filter><filter id="fx3" x="-10%" y="-10%" width="120%" height="120%" filterUnits="userSpaceOnUse" primitiveUnits="userSpaceOnUse"><feComponentTransfer color-interpolation-filters="sRGB"><feFuncR type="discrete" tableValues="0.000000 0.000000"/><feFuncG type="discrete" tableValues="0.000000 0.000000"/><feFuncB type="discrete" tableValues="0.000000 0.000000"/><feFuncA type="linear" slope="0.400000" intercept="0.000000"/></feComponentTransfer><feGaussianBlur stdDeviation="6.111111 6.111111"/></filter><filter id="fx4" x="-10%" y="-10%" width="120%" height="120%" filterUnits="userSpaceOnUse" primitiveUnits="userSpaceOnUse"><feComponentTransfer color-interpolation-filters="sRGB"><feFuncR type="discrete" tableValues="0.000000 0.000000"/><feFuncG type="discrete" tableValues="0.000000 0.000000"/><feFuncB type="discrete" tableValues="0.000000 0.000000"/><feFuncA type="linear" slope="0.400000" intercept="0.000000"/></feComponentTransfer><feGaussianBlur stdDeviation="6.111111 6.111111"/></filter><filter id="fx5" x="-10%" y="-10%" width="120%" height="120%" filterUnits="userSpaceOnUse" primitiveUnits="userSpaceOnUse"><feComponentTransfer color-interpolation-filters="sRGB"><feFuncR type="discrete" tableValues="0.000000 0.000000"/><feFuncG type="discrete" tableValues="0.000000 0.000000"/><feFuncB type="discrete" tableValues="0.000000 0.000000"/><feFuncA type="linear" slope="0.400000" intercept="0.000000"/></feComponentTransfer><feGaussianBlur stdDeviation="6.111111 6.111111"/></filter><filter id="fx6" x="-10%" y="-10%" width="120%" height="120%" filterUnits="userSpaceOnUse" primitiveUnits="userSpaceOnUse"><feComponentTransfer color-interpolation-filters="sRGB"><feFuncR type="discrete" tableValues="0.000000 0.000000"/><feFuncG type="discrete" tableValues="0.000000 0.000000"/><feFuncB type="discrete" tableValues="0.000000 0.000000"/><feFuncA type="linear" slope="0.400000" intercept="0.000000"/></feComponentTransfer><feGaussianBlur stdDeviation="6.111111 6.111111"/></filter><filter id="fx7" x="-10%" y="-10%" width="120%" height="120%" filterUnits="userSpaceOnUse" primitiveUnits="userSpaceOnUse"><feComponentTransfer color-interpolation-filters="sRGB"><feFuncR type="discrete" tableValues="0.000000 0.000000"/><feFuncG type="discrete" tableValues="0.000000 0.000000"/><feFuncB type="discrete" tableValues="0.000000 0.000000"/><feFuncA type="linear" slope="0.400000" intercept="0.000000"/></feComponentTransfer><feGaussianBlur stdDeviation="6.111111 6.111111"/></filter><filter id="fx8" x="-10%" y="-10%" width="120%" height="120%" filterUnits="userSpaceOnUse" primitiveUnits="userSpaceOnUse"><feComponentTransfer color-interpolation-filters="sRGB"><feFuncR type="discrete" tableValues="0.000000 0.000000"/><feFuncG type="discrete" tableValues="0.000000 0.000000"/><feFuncB type="discrete" tableValues="0.000000 0.000000"/><feFuncA type="linear" slope="0.400000" intercept="0.000000"/></feComponentTransfer><feGaussianBlur stdDeviation="6.111111 6.111111"/></filter><filter id="fx9" x="-10%" y="-10%" width="120%" height="120%" filterUnits="userSpaceOnUse" primitiveUnits="userSpaceOnUse"><feComponentTransfer color-interpolation-filters="sRGB"><feFuncR type="discrete" tableValues="0.000000 0.000000"/><feFuncG type="discrete" tableValues="0.000000 0.000000"/><feFuncB type="discrete" tableValues="0.000000 0.000000"/><feFuncA type="linear" slope="0.400000" intercept="0.000000"/></feComponentTransfer><feGaussianBlur stdDeviation="6.111111 6.111111"/></filter><filter id="fx10" x="-10%" y="-10%" width="120%" height="120%" filterUnits="userSpaceOnUse" primitiveUnits="userSpaceOnUse"><feComponentTransfer color-interpolation-filters="sRGB"><feFuncR type="discrete" tableValues="0.000000 0.000000"/><feFuncG type="discrete" tableValues="0.000000 0.000000"/><feFuncB type="discrete" tableValues="0.000000 0.000000"/><feFuncA type="linear" slope="0.400000" intercept="0.000000"/></feComponentTransfer><feGaussianBlur stdDeviation="6.111111 6.111111"/></filter><filter id="fx11" x="-10%" y="-10%" width="120%" height="120%" filterUnits="userSpaceOnUse" primitiveUnits="userSpaceOnUse"><feComponentTransfer color-interpolation-filters="sRGB"><feFuncR type="discrete" tableValues="0.000000 0.000000"/><feFuncG type="discrete" tableValues="0.000000 0.000000"/><feFuncB type="discrete" tableValues="0.000000 0.000000"/><feFuncA type="linear" slope="0.400000" intercept="0.000000"/></feComponentTransfer><feGaussianBlur stdDeviation="6.111111 6.111111"/></filter><filter id="fx12" x="-10%" y="-10%" width="120%" height="120%" filterUnits="userSpaceOnUse" primitiveUnits="userSpaceOnUse"><feComponentTransfer color-interpolation-filters="sRGB"><feFuncR type="discrete" tableValues="0.000000 0.000000"/><feFuncG type="discrete" tableValues="0.000000 0.000000"/><feFuncB type="discrete" tableValues="0.000000 0.000000"/><feFuncA type="linear" slope="0.400000" intercept="0.000000"/></feComponentTransfer><feGaussianBlur stdDeviation="6.111111 6.111111"/></filter><filter id="fx13" x="-10%" y="-10%" width="120%" height="120%" filterUnits="userSpaceOnUse" primitiveUnits="userSpaceOnUse"><feComponentTransfer color-interpolation-filters="sRGB"><feFuncR type="discrete" tableValues="0.000000 0.000000"/><feFuncG type="discrete" tableValues="0.000000 0.000000"/><feFuncB type="discrete" tableValues="0.000000 0.000000"/><feFuncA type="linear" slope="0.400000" intercept="0.000000"/></feComponentTransfer><feGaussianBlur stdDeviation="6.111111 6.111111"/></filter><filter id="fx14" x="-10%" y="-10%" width="120%" height="120%" filterUnits="userSpaceOnUse" primitiveUnits="userSpaceOnUse"><feComponentTransfer color-interpolation-filters="sRGB"><feFuncR type="discrete" tableValues="0.000000 0.000000"/><feFuncG type="discrete" tableValues="0.000000 0.000000"/><feFuncB type="discrete" tableValues="0.000000 0.000000"/><feFuncA type="linear" slope="0.400000" intercept="0.000000"/></feComponentTransfer><feGaussianBlur stdDeviation="6.111111 6.111111"/></filter><filter id="fx15" x="-10%" y="-10%" width="120%" height="120%" filterUnits="userSpaceOnUse" primitiveUnits="userSpaceOnUse"><feComponentTransfer color-interpolation-filters="sRGB"><feFuncR type="discrete" tableValues="0.000000 0.000000"/><feFuncG type="discrete" tableValues="0.000000 0.000000"/><feFuncB type="discrete" tableValues="0.000000 0.000000"/><feFuncA type="linear" slope="0.400000" intercept="0.000000"/></feComponentTransfer><feGaussianBlur stdDeviation="6.111111 6.111111"/></filter><filter id="fx16" x="-10%" y="-10%" width="120%" height="120%" filterUnits="userSpaceOnUse" primitiveUnits="userSpaceOnUse"><feComponentTransfer color-interpolation-filters="sRGB"><feFuncR type="discrete" tableValues="0.000000 0.000000"/><feFuncG type="discrete" tableValues="0.000000 0.000000"/><feFuncB type="discrete" tableValues="0.000000 0.000000"/><feFuncA type="linear" slope="0.400000" intercept="0.000000"/></feComponentTransfer><feGaussianBlur stdDeviation="6.111111 6.111111"/></filter><clipPath id="clip17"><path d="M2199.45 288.473C1675.33 288.473 1250.45 713.355 1250.45 1237.47 1250.45 1761.59 1675.33 2186.47 2199.45 2186.47 2723.57 2186.47 3148.45 1761.59 3148.45 1237.47 3148.45 713.355 2723.57 288.473 2199.45 288.473ZM1090 132 3304 132 3304 2342 1090 2342Z" fill-rule="evenodd" clip-rule="evenodd"/></clipPath><clipPath id="clip18"><rect x="1.3407" y="1.36221" width="1935.67" height="1935.67"/></clipPath><linearGradient x1="2199.45" y1="288.473" x2="2199.45" y2="2186.47" gradientUnits="userSpaceOnUse" spreadMethod="reflect" id="fill19"><stop offset="0" stop-color="#1CADCE" stop-opacity="1"/><stop offset="0.5" stop-color="#3296D7" stop-opacity="1"/><stop offset="1" stop-color="#4980E0" stop-opacity="1"/></linearGradient><clipPath id="clip20"><rect x="1.34082" y="1.3623" width="786.667" height="787.667"/></clipPath><clipPath id="clip21"><rect x="1.34058" y="1.36215" width="520.667" height="520.667"/></clipPath><clipPath id="clip22"><rect x="1.34058" y="1.36243" width="358.667" height="358.667"/></clipPath><clipPath id="clip23"><rect x="1.34058" y="1.3623" width="512.667" height="512.667"/></clipPath><clipPath id="clip24"><rect x="1.34058" y="1.3623" width="203.667" height="203.667"/></clipPath><clipPath id="clip25"><rect x="1.34082" y="1.36261" width="253.667" height="253.667"/></clipPath><clipPath id="clip26"><rect x="-14.7566" y="0.936157" width="343.764" height="407.97"/></clipPath><clipPath id="clip27"><rect x="1.34045" y="1.36218" width="159.667" height="262.667"/></clipPath><clipPath id="clip28"><rect x="1.34058" y="1.3623" width="121.667" height="196.667"/></clipPath><clipPath id="clip29"><rect x="1.34045" y="1.36218" width="153.667" height="194.667"/></clipPath><clipPath id="clip30"><rect x="1.34045" y="1.36255" width="126.667" height="199.667"/></clipPath><clipPath id="clip31"><rect x="1.34058" y="1.36218" width="159.667" height="262.667"/></clipPath><clipPath id="clip32"><rect x="1.3396" y="1.36218" width="77.6675" height="239.667"/></clipPath><clipPath id="clip33"><rect x="1.34058" y="1.36255" width="153.667" height="193.667"/></clipPath><clipPath id="clip34"><rect x="1.34082" y="1.3623" width="126.666" height="200.667"/></clipPath><clipPath id="clip35"><rect x="1.34058" y="1.36218" width="149.667" height="235.667"/></clipPath></defs><g transform="translate(-1090 -132)"><g><g clip-path="url(#clip17)"><g clip-path="url(#clip18)" filter="url(#fx0)" transform="translate(1240 278)"><g><g><path d="M20.1741 969.196C20.1741 445.078 445.056 20.1956 969.174 20.1956 1493.29 20.1956 1918.17 445.078 1918.17 969.196 1918.17 1493.31 1493.29 1918.2 969.174 1918.2 445.056 1918.2 20.1741 1493.31 20.1741 969.196Z" stroke="#FFFFFF" stroke-width="1" stroke-linecap="butt" stroke-linejoin="miter" stroke-miterlimit="8" stroke-opacity="1" fill="#FF0000" fill-rule="evenodd" fill-opacity="1"/></g></g></g></g><path d="M1250.45 1237.47C1250.45 713.355 1675.33 288.473 2199.45 288.473 2723.57 288.473 3148.45 713.355 3148.45 1237.47 3148.45 1761.59 2723.57 2186.47 2199.45 2186.47 1675.33 2186.47 1250.45 1761.59 1250.45 1237.47Z" stroke="#FFFFFF" stroke-width="0" stroke-linecap="butt" stroke-linejoin="miter" stroke-miterlimit="8" stroke-opacity="1" fill="url(#fill19)" fill-rule="evenodd"/><g clip-path="url(#clip20)" filter="url(#fx1)" transform="translate(1432 1440)"><g><g><path d="M32.6741 395.196C32.6741 194.993 194.747 32.6956 394.674 32.6956 594.602 32.6956 756.674 194.993 756.674 395.196 756.674 595.399 594.602 757.696 394.674 757.696 194.747 757.696 32.6741 595.399 32.6741 395.196Z" stroke="#FFFFFF" stroke-width="26" stroke-linecap="butt" stroke-linejoin="miter" stroke-miterlimit="8" stroke-opacity="1" fill="none" fill-rule="evenodd"/></g></g></g><path d="M1454.95 1825.47C1454.95 1625.27 1617.02 1462.97 1816.95 1462.97 2016.88 1462.97 2178.95 1625.27 2178.95 1825.47 2178.95 2025.68 2016.88 2187.97 1816.95 2187.97 1617.02 2187.97 1454.95 2025.68 1454.95 1825.47Z" stroke="#FFFFFF" stroke-width="26.1477" stroke-linecap="butt" stroke-linejoin="miter" stroke-miterlimit="8" stroke-opacity="1" fill="none" fill-rule="evenodd"/><g clip-path="url(#clip21)" filter="url(#fx2)" transform="translate(2143 456)"><g><g><path d="M32.6739 261.696C32.6739 135.223 135.201 32.6955 261.674 32.6955 388.147 32.6955 490.674 135.223 490.674 261.696 490.674 388.169 388.147 490.696 261.674 490.696 135.201 490.696 32.6739 388.169 32.6739 261.696Z" stroke="#FFFFFF" stroke-width="26" stroke-linecap="butt" stroke-linejoin="miter" stroke-miterlimit="8" stroke-opacity="1" fill="none" fill-rule="evenodd"/></g></g></g><path d="M2165.95 707.973C2165.95 581.5 2268.48 478.973 2394.95 478.973 2521.42 478.973 2623.95 581.5 2623.95 707.973 2623.95 834.447 2521.42 936.973 2394.95 936.973 2268.48 936.973 2165.95 834.447 2165.95 707.973Z" stroke="#FFFFFF" stroke-width="26.1477" stroke-linecap="butt" stroke-linejoin="miter" stroke-miterlimit="8" stroke-opacity="1" fill="none" fill-rule="evenodd"/><g clip-path="url(#clip22)" filter="url(#fx3)" transform="translate(2201 498)"><g><g><path d="M32.6741 180.696C32.6741 98.9577 98.9361 32.6957 180.674 32.6957 262.412 32.6957 328.674 98.9577 328.674 180.696 328.674 262.434 262.412 328.696 180.674 328.696 98.9361 328.696 32.6741 262.434 32.6741 180.696Z" stroke="#FFFFFF" stroke-width="26" stroke-linecap="butt" stroke-linejoin="miter" stroke-miterlimit="8" stroke-opacity="1" fill="none" fill-rule="evenodd"/></g></g></g><path d="M2223.95 668.973C2223.95 587.235 2290.21 520.973 2371.95 520.973 2453.69 520.973 2519.95 587.235 2519.95 668.973 2519.95 750.711 2453.69 816.973 2371.95 816.973 2290.21 816.973 2223.95 750.711 2223.95 668.973Z" stroke="#FFFFFF" stroke-width="26.1477" stroke-linecap="butt" stroke-linejoin="miter" stroke-miterlimit="8" stroke-opacity="1" fill="none" fill-rule="evenodd"/><g clip-path="url(#clip23)" filter="url(#fx4)" transform="translate(1568 1494)"><g><g><path d="M32.6738 257.696C32.6738 133.432 133.41 32.6956 257.674 32.6956 381.938 32.6956 482.674 133.432 482.674 257.696 482.674 381.96 381.938 482.696 257.674 482.696 133.41 482.696 32.6738 381.96 32.6738 257.696Z" stroke="#FFFFFF" stroke-width="26" stroke-linecap="butt" stroke-linejoin="miter" stroke-miterlimit="8" stroke-opacity="1" fill="none" fill-rule="evenodd"/></g></g></g><path d="M1590.95 1741.97C1590.95 1617.71 1691.69 1516.97 1815.95 1516.97 1940.22 1516.97 2040.95 1617.71 2040.95 1741.97 2040.95 1866.24 1940.22 1966.97 1815.95 1966.97 1691.69 1966.97 1590.95 1866.24 1590.95 1741.97Z" stroke="#FFFFFF" stroke-width="26.1477" stroke-linecap="butt" stroke-linejoin="miter" stroke-miterlimit="8" stroke-opacity="1" fill="none" fill-rule="evenodd"/><g clip-path="url(#clip24)" filter="url(#fx5)" transform="translate(1791 606)"><g><g><path d="M186.674 103.196C186.674 107.615 183.771 111.51 179.536 112.772L154.387 121.1C138.672 126.36 126.338 138.694 121.078 154.409L112.751 179.558C111.488 183.793 107.594 186.696 103.174 186.696 98.7547 186.696 94.8604 183.793 93.5977 179.558L85.2703 154.409C80.0105 138.693 67.6766 126.36 51.961 121.1L26.8122 112.772C22.5773 111.51 19.674 107.615 19.674 103.196 19.674 98.7764 22.577 94.882 26.8122 93.6194L51.961 85.2921C58.473 83.1127 64.4042 79.7184 69.4923 75.3727 76.6836 69.2301 82.1898 61.1863 85.2703 51.9827L93.5977 26.8343C94.8604 22.599 98.7547 19.6957 103.174 19.6957 107.594 19.6957 111.488 22.599 112.751 26.8343L121.078 51.9827C126.338 67.6983 138.672 80.0322 154.387 85.2921L179.536 93.6194C183.771 94.882 186.674 98.7764 186.674 103.196Z" fill="#FFFFFF" fill-rule="evenodd" fill-opacity="1"/></g></g></g><path d="M1967.95 699.473C1967.95 703.893 1965.05 707.787 1960.81 709.05L1935.66 717.377C1919.95 722.637 1907.62 734.971 1902.36 750.686L1894.03 775.835C1892.77 780.07 1888.87 782.973 1884.45 782.973 1880.03 782.973 1876.14 780.07 1874.87 775.835L1866.55 750.686C1861.29 734.971 1848.95 722.637 1833.24 717.377L1808.09 709.05C1803.85 707.787 1800.95 703.893 1800.95 699.473 1800.95 695.054 1803.85 691.159 1808.09 689.897L1833.24 681.569C1839.75 679.39 1845.68 675.996 1850.77 671.65 1857.96 665.507 1863.47 657.464 1866.55 648.26L1874.87 623.112C1876.14 618.876 1880.03 615.973 1884.45 615.973 1888.87 615.973 1892.77 618.876 1894.03 623.112L1902.36 648.26C1907.62 663.976 1919.95 676.31 1935.66 681.569L1960.81 689.897C1965.05 691.159 1967.95 695.054 1967.95 699.473Z" fill="#FFFFFF" fill-rule="evenodd" fill-opacity="1"/><g clip-path="url(#clip25)" filter="url(#fx6)" transform="translate(1576 732)"><g><g><path d="M227.918 115.914C233.165 117.763 236.674 122.719 236.674 128.279 236.674 133.839 233.165 138.794 227.918 140.644L194.698 151.432C174.22 158.234 158.153 174.289 151.345 194.752L140.549 227.946C138.698 233.189 133.738 236.696 128.174 236.696 122.61 236.696 117.651 233.189 115.8 227.946L105.003 194.752C98.2403 174.226 82.1663 158.103 61.651 151.266L28.4308 140.478C23.1836 138.629 19.6742 133.673 19.6742 128.113 19.6742 122.553 23.1836 117.598 28.4308 115.748L61.651 104.96C81.8752 97.9822 97.6689 81.9547 104.339 61.6406L115.135 28.4458C116.986 23.2027 121.946 19.6959 127.51 19.6959 133.074 19.6959 138.033 23.2027 139.884 28.4458L150.681 61.6406C157.488 82.1028 173.555 98.1577 194.033 104.96L227.253 115.748Z" fill="#FFFFFF" fill-rule="evenodd" fill-opacity="1"/></g></g></g><path d="M1794.2 838.191C1799.44 840.041 1802.95 844.996 1802.95 850.556 1802.95 856.116 1799.44 861.072 1794.2 862.921L1760.97 873.709C1740.5 880.512 1724.43 896.567 1717.62 917.029L1706.83 950.224C1704.97 955.467 1700.02 958.974 1694.45 958.974 1688.89 958.974 1683.93 955.467 1682.08 950.224L1671.28 917.029C1664.52 896.503 1648.44 880.38 1627.93 873.544L1594.71 862.756C1589.46 860.906 1585.95 855.95 1585.95 850.391 1585.95 844.831 1589.46 839.875 1594.71 838.025L1627.93 827.237C1648.15 820.26 1663.95 804.232 1670.62 783.918L1681.41 750.723C1683.26 745.48 1688.22 741.973 1693.79 741.973 1699.35 741.973 1704.31 745.48 1706.16 750.723L1716.96 783.918C1723.77 804.38 1739.83 820.435 1760.31 827.237L1793.53 838.025Z" fill="#FFFFFF" fill-rule="evenodd" fill-opacity="1"/><g clip-path="url(#clip26)" filter="url(#fx7)" transform="translate(2394 1475)"><g><g><path d="M310.674 45.9369C310.674 72.1442 284.527 72.1442 284.527 72.1442L270.822 71.7214C243.566 74.1595 232.052 88.6342 252.723 110.455 273.395 132.276 284.926 163.855 281.461 179.036 268.193 237.188 183.488 216.473 146.227 208.286 141.396 207.224 153.67 214.824 157.225 218.27 164.768 225.583 174.375 231.457 179.354 240.716 187.565 255.983 202.438 274.026 195.832 290.056 181.982 323.661 120.756 313.735 94.1326 314.257 85.8717 314.419 72.7698 309.438 69.5027 317.044 66.0659 325.044 79.3074 331.459 84.862 338.158 84.862 338.158 100.55 359.124 79.6323 374.848 58.7144 390.573 43.0263 369.607 43.0263 369.607 15.5336 330.568 3.57692 292.362 57.0762 266.295 68.1754 260.887 105.718 261.809 119.09 261.875 120.99 261.884 123.346 261.862 125.884 261.886 122.642 258.582 119.728 255.185 117.719 252.613 96.4682 225.405 77.9901 202.737 112.96 167.845 127.099 153.737 166.674 160.213 184.715 161.988 193.038 162.807 201.348 163.754 209.676 164.523 213.61 164.886 217.668 164.563 221.594 164.931 213.719 157.041 189.15 117.164 187.942 106.123 182.101 52.7483 217.684 32.1894 259.856 21.7666 269.961 19.2696 284.527 19.7293 284.527 19.7293 284.527 19.7293 310.674 19.7293 310.674 45.9366Z" fill="#FFFFFF" fill-rule="evenodd" fill-opacity="1"/></g></g></g><path d="M2694.95 1511.21C2694.95 1537.42 2668.8 1537.42 2668.8 1537.42L2655.1 1537C2627.84 1539.44 2616.33 1553.91 2637 1575.73 2657.67 1597.55 2669.2 1629.13 2665.74 1644.31 2652.47 1702.47 2567.76 1681.75 2530.5 1673.56 2525.67 1672.5 2537.95 1680.1 2541.5 1683.55 2549.05 1690.86 2558.65 1696.73 2563.63 1705.99 2571.84 1721.26 2586.72 1739.3 2580.11 1755.33 2566.26 1788.94 2505.03 1779.01 2478.41 1779.53 2470.15 1779.7 2457.05 1774.72 2453.78 1782.32 2450.34 1790.32 2463.58 1796.74 2469.14 1803.43 2469.14 1803.43 2484.83 1824.4 2463.91 1840.13 2442.99 1855.85 2427.3 1834.88 2427.3 1834.88 2399.81 1795.84 2387.85 1757.64 2441.35 1731.57 2452.45 1726.16 2490 1727.09 2503.37 1727.15 2505.27 1727.16 2507.62 1727.14 2510.16 1727.16 2506.92 1723.86 2504 1720.46 2502 1717.89 2480.75 1690.68 2462.27 1668.01 2497.24 1633.12 2511.38 1619.01 2550.95 1625.49 2568.99 1627.27 2577.31 1628.08 2585.62 1629.03 2593.95 1629.8 2597.89 1630.16 2601.95 1629.84 2605.87 1630.21 2598 1622.32 2573.43 1582.44 2572.22 1571.4 2566.38 1518.03 2601.96 1497.47 2644.13 1487.04 2654.24 1484.55 2668.8 1485.01 2668.8 1485.01 2668.8 1485.01 2694.95 1485.01 2694.95 1511.21Z" fill="#FFFFFF" fill-rule="evenodd" fill-opacity="1"/><g clip-path="url(#clip27)" filter="url(#fx8)" transform="translate(1527 1085)"><g><g><path d="M94.847 190.541C103.704 179.733 108.132 149.128 108.132 98.7259L107.874 93.4201 108.132 89.1831C107.788 88.8393 107.616 88.2252 107.616 87.3409 107.616 83.4354 105.93 77.0612 102.56 68.2189 101.133 63.7977 99.0044 61.501 96.1753 61.3292 93.174 63.2695 89.3727 70.6138 84.7722 83.3617 75.5463 108.293 67.747 135.262 61.3752 164.271L67.7593 170.903C74.6729 178.689 83.7018 185.235 94.8466 190.54ZM38.2736 245.696C36.3052 245.696 34.2633 245.168 32.1474 244.112 23.832 240.403 19.6738 216.258 19.6738 171.677 19.6738 141.809 22.7739 110.774 28.9739 78.5719 36.5761 39.3212 47.0197 19.6955 60.3051 19.6955 63.1343 19.6955 65.2625 20.8375 66.6892 23.1219 68.1163 25.4309 68.8298 28.1818 68.8298 31.375 68.8298 36.1402 67.6733 42.674 65.3609 50.9758 61.8179 63.3554 58.4477 82.8089 55.2493 109.337 58.9887 96.4414 62.9375 84.6391 67.0954 73.9298 71.2532 63.2449 76.2598 54.6727 82.1152 48.2126 87.946 41.7529 95.4744 38.5225 104.7 38.5225 117.444 38.5225 127.359 49.0477 134.445 70.0978 139.931 86.0144 142.674 99.5361 142.674 110.663 142.674 139.5 139.845 162.318 134.186 179.119 128.503 195.92 121.332 207.906 112.672 215.079 103.987 222.226 95.1301 225.8 86.1009 225.8 78.302 225.8 69.888 222.89 60.8588 217.068L61.3756 223.148C61.3756 230.05 58.8046 235.539 53.6624 239.617 48.5205 243.67 43.3909 245.696 38.2736 245.696Z" fill="#FFFFFF" fill-rule="evenodd" fill-opacity="1"/></g></g></g><path d="M1612.12 1265.82C1620.98 1255.01 1625.41 1224.41 1625.41 1174L1625.15 1168.7 1625.41 1164.46C1625.07 1164.12 1624.89 1163.5 1624.89 1162.62 1624.89 1158.71 1623.21 1152.34 1619.84 1143.5 1618.41 1139.08 1616.28 1136.78 1613.45 1136.61 1610.45 1138.55 1606.65 1145.89 1602.05 1158.64 1592.82 1183.57 1585.02 1210.54 1578.65 1239.55L1585.04 1246.18C1591.95 1253.97 1600.98 1260.51 1612.12 1265.82ZM1555.55 1320.97C1553.58 1320.97 1551.54 1320.45 1549.42 1319.39 1541.11 1315.68 1536.95 1291.54 1536.95 1246.95 1536.95 1217.09 1540.05 1186.05 1546.25 1153.85 1553.85 1114.6 1564.3 1094.97 1577.58 1094.97 1580.41 1094.97 1582.54 1096.11 1583.97 1098.4 1585.39 1100.71 1586.11 1103.46 1586.11 1106.65 1586.11 1111.42 1584.95 1117.95 1582.64 1126.25 1579.1 1138.63 1575.72 1158.09 1572.53 1184.61 1576.27 1171.72 1580.21 1159.92 1584.37 1149.21 1588.53 1138.52 1593.54 1129.95 1599.39 1123.49 1605.22 1117.03 1612.75 1113.8 1621.98 1113.8 1634.72 1113.8 1644.64 1124.33 1651.72 1145.38 1657.21 1161.29 1659.95 1174.81 1659.95 1185.94 1659.95 1214.78 1657.12 1237.6 1651.46 1254.4 1645.78 1271.2 1638.61 1283.18 1629.95 1290.36 1621.26 1297.5 1612.41 1301.08 1603.38 1301.08 1595.58 1301.08 1587.17 1298.17 1578.14 1292.35L1578.65 1298.42C1578.65 1305.33 1576.08 1310.82 1570.94 1314.89 1565.8 1318.95 1560.67 1320.97 1555.55 1320.97Z" fill="#FFFFFF" fill-rule="evenodd" fill-opacity="1"/><g clip-path="url(#clip28)" filter="url(#fx9)" transform="translate(1690 1143)"><g><g><path d="M55.9611 88.3096C61.2551 84.7774 64.7845 82.1286 66.5495 80.3627 70.0789 76.1196 72.2849 73.2011 73.1669 71.6065L74.2333 70.2822C75.1156 68.3447 75.8142 66.9343 76.3287 66.051 76.8681 65.1684 77.3094 63.1325 77.6524 59.944 77.3094 56.4122 76.6476 54.1189 75.6672 53.0643 74.711 52.0098 72.9096 51.3965 70.2626 51.2249L66.2919 55.7131 59.1226 71.6065C58.6081 71.7781 57.9463 74.3411 57.1374 79.2955 56.3531 84.2255 55.9611 87.2301 55.9611 88.3092ZM73.4245 179.696C73.253 179.696 71.3164 179.377 67.6156 178.739 63.8899 178.126 59.3802 176.63 54.0862 174.251 48.7921 171.872 43.5467 168.07 38.3507 162.846 33.1547 157.646 28.7426 150.497 25.1153 141.398 21.4879 132.298 19.6739 120.685 19.6739 106.558 19.6739 85.9059 24.6253 66.6647 34.5274 48.8338 45.4588 29.4084 59.7477 19.6956 77.3952 19.6956 81.4635 19.6956 85.6061 20.7138 89.8214 22.7493 94.062 24.7607 97.5913 27.8509 100.41 32.0204 103.253 36.1654 104.675 41.4141 104.675 47.7666 104.675 56.7681 101.978 65.6469 96.5861 74.4028 91.1941 83.1345 84.7969 90.5413 77.3948 96.6242 69.9931 102.731 62.934 106.582 56.2183 108.176 57.444 115.926 59.2944 122.451 61.77 127.748 66.3532 137.461 74.6498 144.267 86.6599 148.167 92.6648 150.104 96.1084 151.515 96.9907 152.398L100.41 153.722C102.886 154.949 104.123 156.629 104.123 158.763 104.123 163.889 100.814 168.659 94.1967 173.074 87.579 177.489 80.655 179.696 73.4245 179.696Z" fill="#FFFFFF" fill-rule="evenodd" fill-opacity="1"/></g></g></g><path d="M1736.24 1221.59C1741.53 1218.05 1745.06 1215.41 1746.83 1213.64 1750.36 1209.4 1752.56 1206.48 1753.44 1204.88L1754.51 1203.56C1755.39 1201.62 1756.09 1200.21 1756.61 1199.33 1757.15 1198.45 1757.59 1196.41 1757.93 1193.22 1757.59 1189.69 1756.92 1187.4 1755.94 1186.34 1754.99 1185.29 1753.19 1184.67 1750.54 1184.5L1746.57 1188.99 1739.4 1204.88C1738.89 1205.06 1738.22 1207.62 1737.41 1212.57 1736.63 1217.5 1736.24 1220.51 1736.24 1221.59ZM1753.7 1312.97C1753.53 1312.97 1751.59 1312.65 1747.89 1312.02 1744.17 1311.4 1739.66 1309.91 1734.36 1307.53 1729.07 1305.15 1723.82 1301.35 1718.63 1296.12 1713.43 1290.92 1709.02 1283.77 1705.39 1274.67 1701.77 1265.58 1699.95 1253.96 1699.95 1239.83 1699.95 1219.18 1704.9 1199.94 1714.8 1182.11 1725.74 1162.69 1740.03 1152.97 1757.67 1152.97 1761.74 1152.97 1765.88 1153.99 1770.1 1156.03 1774.34 1158.04 1777.87 1161.13 1780.69 1165.3 1783.53 1169.44 1784.95 1174.69 1784.95 1181.04 1784.95 1190.05 1782.26 1198.92 1776.86 1207.68 1771.47 1216.41 1765.07 1223.82 1757.67 1229.9 1750.27 1236.01 1743.21 1239.86 1736.5 1241.45 1737.72 1249.2 1739.57 1255.73 1742.05 1261.03 1746.63 1270.74 1754.93 1277.54 1766.94 1281.44 1772.94 1283.38 1776.39 1284.79 1777.27 1285.67L1780.69 1287C1783.16 1288.23 1784.4 1289.91 1784.4 1292.04 1784.4 1297.17 1781.09 1301.94 1774.47 1306.35 1767.86 1310.77 1760.93 1312.97 1753.7 1312.97Z" fill="#FFFFFF" fill-rule="evenodd" fill-opacity="1"/><g clip-path="url(#clip29)" filter="url(#fx10)" transform="translate(1811 1145)"><g><g><path d="M57.3603 147.921C58.5884 147.724 59.6444 147.625 60.5285 147.625 61.4126 147.625 61.9408 147.502 62.1126 147.256 62.309 146.985 62.6281 146.763 63.0704 146.591 63.5122 146.394 65.5877 145.236 69.296 143.118 70.0082 142.774 72.3905 140.471 76.4429 136.21 81.0353 130.521 83.8721 126.446 84.9526 123.982 85.6403 122.554 86.1681 121.754 86.5367 121.581 87.4208 119.266 87.8627 116.335 87.8627 112.789 87.8627 109.07 87.4576 105.388 86.6472 101.743 85.8612 98.1233 84.9403 95.7832 83.884 94.7243 82.1161 93.8378 79.9057 93.3943 77.2533 93.3943 73.8887 93.3943 70.5241 93.7885 67.1595 94.5766 63.7949 95.3648 61.6704 96.0294 60.7863 96.5714 50.0047 106.324 44.6141 116.434 44.6141 126.901 44.6141 130.447 44.9701 133.365 45.6824 135.656 46.7383 139.572 47.8434 142.367 48.9979 144.042 50.152 145.741 52.9397 147.034 57.3603 147.92ZM114.387 177.696C106.602 177.696 101.997 173.349 100.572 164.655 100.056 160.937 99.6146 154.472 99.246 145.261 84.0439 163.683 67.8714 172.894 50.7293 172.894 42.4037 172.894 35.1463 169.79 28.9575 163.584 22.7684 157.378 19.6738 147.982 19.6738 135.398 19.6738 118.724 26.133 103.344 39.0513 89.2571 51.9693 75.1699 65.7595 68.1265 80.4212 68.1265 84.4981 68.1265 88.7468 69.0131 93.1677 70.7862 91.7432 66.5256 89.9749 62.7085 87.8627 59.3341 83.4421 53.3004 80.2985 49.754 78.432 48.6951 76.5902 47.6362 74.5151 46.577 72.2064 45.5181 64.5931 41.9717 60.7863 38.1542 60.7863 34.066 60.7863 31.0616 62.4317 27.9091 65.7227 24.6089 68.9891 21.3334 73.4465 19.6956 79.0952 19.6956 89.8767 19.6956 98.8038 23.3777 105.877 30.7412 112.95 38.105 118.574 47.4143 122.749 58.6695 126.9 69.9243 129.994 81.721 132.033 94.0597 134.047 106.374 135.323 117.85 135.864 128.489 136.404 139.128 136.674 147.194 136.674 152.686 136.674 159.262 135.164 164.36 132.143 167.98 129.147 171.625 125.881 174.149 122.344 175.553 118.808 176.981 116.155 177.696 114.387 177.696Z" fill="#FFFFFF" fill-rule="evenodd" fill-opacity="1"/></g></g></g><path d="M1858.64 1283.2C1859.87 1283 1860.92 1282.9 1861.81 1282.9 1862.69 1282.9 1863.22 1282.78 1863.39 1282.53 1863.59 1282.26 1863.91 1282.04 1864.35 1281.87 1864.79 1281.67 1866.86 1280.51 1870.57 1278.4 1871.29 1278.05 1873.67 1275.75 1877.72 1271.49 1882.31 1265.8 1885.15 1261.72 1886.23 1259.26 1886.92 1257.83 1887.45 1257.03 1887.81 1256.86 1888.7 1254.54 1889.14 1251.61 1889.14 1248.07 1889.14 1244.35 1888.73 1240.67 1887.92 1237.02 1887.14 1233.4 1886.22 1231.06 1885.16 1230 1883.39 1229.11 1881.18 1228.67 1878.53 1228.67 1875.17 1228.67 1871.8 1229.07 1868.44 1229.85 1865.07 1230.64 1862.95 1231.31 1862.06 1231.85 1851.28 1241.6 1845.89 1251.71 1845.89 1262.18 1845.89 1265.72 1846.25 1268.64 1846.96 1270.93 1848.02 1274.85 1849.12 1277.64 1850.28 1279.32 1851.43 1281.02 1854.22 1282.31 1858.64 1283.2ZM1915.66 1312.97C1907.88 1312.97 1903.27 1308.63 1901.85 1299.93 1901.33 1296.21 1900.89 1289.75 1900.52 1280.54 1885.32 1298.96 1869.15 1308.17 1852.01 1308.17 1843.68 1308.17 1836.42 1305.07 1830.23 1298.86 1824.05 1292.66 1820.95 1283.26 1820.95 1270.67 1820.95 1254 1827.41 1238.62 1840.33 1224.53 1853.25 1210.45 1867.04 1203.4 1881.7 1203.4 1885.78 1203.4 1890.02 1204.29 1894.45 1206.06 1893.02 1201.8 1891.25 1197.99 1889.14 1194.61 1884.72 1188.58 1881.58 1185.03 1879.71 1183.97 1877.87 1182.91 1875.79 1181.85 1873.48 1180.8 1865.87 1177.25 1862.06 1173.43 1862.06 1169.34 1862.06 1166.34 1863.71 1163.19 1867 1159.89 1870.27 1156.61 1874.72 1154.97 1880.37 1154.97 1891.15 1154.97 1900.08 1158.65 1907.15 1166.02 1914.23 1173.38 1919.85 1182.69 1924.03 1193.95 1928.18 1205.2 1931.27 1217 1933.31 1229.34 1935.32 1241.65 1936.6 1253.13 1937.14 1263.77 1937.68 1274.41 1937.95 1282.47 1937.95 1287.96 1937.95 1294.54 1936.44 1299.64 1933.42 1303.26 1930.42 1306.9 1927.16 1309.43 1923.62 1310.83 1920.09 1312.26 1917.43 1312.97 1915.66 1312.97Z" fill="#FFFFFF" fill-rule="evenodd" fill-opacity="1"/><g clip-path="url(#clip30)" filter="url(#fx11)" transform="translate(1978 1138)"><g><g><path d="M38.2644 182.696 35.6083 182.696C31.3542 182.696 27.8994 178.641 25.2437 170.531 21.5307 158.525 19.6739 135.763 19.6739 102.243 19.6739 88.4979 20.2887 74.7398 21.5181 60.9698 22.9444 44.039 25.8705 33.0985 30.297 28.1494 35.2396 22.5139 40.4527 19.6959 45.9361 19.6959 48.0756 19.6959 50.2025 20.2228 52.3174 21.2763L52.0593 21.2763C52.9445 21.6192 53.965 22.4155 55.1206 23.6653 56.2765 24.8906 57.0266 26.2135 57.3707 27.6347 58.428 31.163 58.9568 33.6254 58.9568 35.0218 58.9568 36.6148 58.7847 38.3789 58.4403 40.3145 57.8991 43.6713 57.1863 51.8795 56.3011 64.9389 58.2436 61.4107 60.4569 57.7967 62.9405 54.0967 71.7931 41.2088 81.3586 34.7646 91.6372 34.7646 96.4078 34.7646 100.613 36.2226 104.252 39.1382 107.867 42.0541 109.674 45.4476 109.674 49.3187 109.674 52.1363 108.567 55.2237 106.355 58.5805 104.141 61.9372 101.092 63.6156 97.207 63.6156 95.2641 63.6156 93.7152 62.954 92.5593 61.6311 91.4037 60.3078 90.3829 58.4947 89.4977 56.1915L85.7724 54.0967C85.4283 54.0967 85.0347 54.1824 84.5919 54.3535 84.1494 54.5253 83.7562 54.7457 83.4117 55.0155 83.043 55.2849 82.5019 55.7261 81.7887 56.3384 81.1001 56.9511 80.3996 57.6981 79.6864 58.5805 71.547 68.2834 66.014 78.035 63.0876 87.8359 60.1615 97.612 58.0838 109.912 56.8541 124.736 57.5427 131.793 58.1084 137.306 58.5509 141.275 58.9937 145.244 59.4361 148.515 59.8789 151.088 60.3213 153.636 60.7272 156.503 61.0959 159.688 61.0959 164.785 58.8827 169.893 54.4565 175.014 50.0304 180.135 44.633 182.696 38.264 182.696Z" fill="#FFFFFF" fill-rule="evenodd" fill-opacity="1"/></g></g></g><path d="M2006.54 1310.97 2003.89 1310.97C1999.63 1310.97 1996.18 1306.92 1993.52 1298.81 1989.81 1286.8 1987.95 1264.04 1987.95 1230.52 1987.95 1216.78 1988.57 1203.02 1989.8 1189.25 1991.22 1172.32 1994.15 1161.38 1998.57 1156.43 2003.52 1150.79 2008.73 1147.97 2014.21 1147.97 2016.35 1147.97 2018.48 1148.5 2020.59 1149.55L2020.34 1149.55C2021.22 1149.9 2022.24 1150.69 2023.4 1151.94 2024.55 1153.17 2025.3 1154.49 2025.65 1155.91 2026.71 1159.44 2027.23 1161.9 2027.23 1163.3 2027.23 1164.89 2027.06 1166.66 2026.72 1168.59 2026.18 1171.95 2025.46 1180.16 2024.58 1193.22 2026.52 1189.69 2028.73 1186.07 2031.22 1182.37 2040.07 1169.49 2049.64 1163.04 2059.91 1163.04 2064.69 1163.04 2068.89 1164.5 2072.53 1167.42 2076.14 1170.33 2077.95 1173.72 2077.95 1177.6 2077.95 1180.41 2076.84 1183.5 2074.63 1186.86 2072.42 1190.21 2069.37 1191.89 2065.48 1191.89 2063.54 1191.89 2061.99 1191.23 2060.84 1189.91 2059.68 1188.59 2058.66 1186.77 2057.77 1184.47L2054.05 1182.37C2053.71 1182.37 2053.31 1182.46 2052.87 1182.63 2052.43 1182.8 2052.03 1183.02 2051.69 1183.29 2051.32 1183.56 2050.78 1184 2050.07 1184.62 2049.38 1185.23 2048.68 1185.98 2047.96 1186.86 2039.82 1196.56 2034.29 1206.31 2031.36 1216.11 2028.44 1225.89 2026.36 1238.19 2025.13 1253.01 2025.82 1260.07 2026.39 1265.58 2026.83 1269.55 2027.27 1273.52 2027.71 1276.79 2028.16 1279.36 2028.6 1281.91 2029 1284.78 2029.37 1287.97 2029.37 1293.06 2027.16 1298.17 2022.73 1303.29 2018.31 1308.41 2012.91 1310.97 2006.54 1310.97Z" fill="#FFFFFF" fill-rule="evenodd" fill-opacity="1"/><g clip-path="url(#clip31)" filter="url(#fx12)" transform="translate(2176 1096)"><g><g><path d="M94.847 190.54C103.704 179.733 108.132 149.128 108.132 98.7257L107.874 93.42 108.132 89.183C107.788 88.8392 107.616 88.2251 107.616 87.3408 107.616 83.4353 105.93 77.0611 102.559 68.2188 101.133 63.7977 99.0044 61.501 96.1753 61.3291 93.174 63.2694 89.3727 70.6137 84.7722 83.3616 75.5459 108.293 67.747 135.262 61.3748 164.27L67.7593 170.902C74.6726 178.689 83.7018 185.235 94.8466 190.54ZM38.2736 245.696C36.3052 245.696 34.2633 245.167 32.1474 244.112 23.8317 240.403 19.6738 216.257 19.6738 171.676 19.6738 141.809 22.7739 110.774 28.9736 78.5722 36.5761 39.3211 47.0197 19.6955 60.3051 19.6955 63.1343 19.6955 65.2625 20.8378 66.6892 23.1223 68.1163 25.4312 68.8298 28.1821 68.8298 31.3753 68.8298 36.1402 67.6733 42.6739 65.3609 50.9761 61.8179 63.3554 58.4473 82.8092 55.2493 109.337 58.9887 96.4413 62.9375 84.639 67.0954 73.9297 71.2532 63.2452 76.2598 54.6726 82.1152 48.2126 87.946 41.7529 95.4744 38.5228 104.7 38.5228 117.444 38.5228 127.359 49.0477 134.445 70.0978 139.931 86.0143 142.674 99.5359 142.674 110.663 142.674 139.499 139.845 162.318 134.186 179.119 128.503 195.92 121.332 207.906 112.671 215.079 103.987 222.226 95.1301 225.8 86.1009 225.8 78.302 225.8 69.8876 222.889 60.8588 217.068L61.3756 223.148C61.3756 230.05 58.8046 235.539 53.6624 239.617 48.5205 243.669 43.3909 245.696 38.2736 245.696Z" fill="#FFFFFF" fill-rule="evenodd" fill-opacity="1"/></g></g></g><path d="M2261.12 1276.82C2269.98 1266.01 2274.41 1235.41 2274.41 1185L2274.15 1179.7 2274.41 1175.46C2274.07 1175.12 2273.89 1174.5 2273.89 1173.62 2273.89 1169.71 2272.21 1163.34 2268.84 1154.5 2267.41 1150.07 2265.28 1147.78 2262.45 1147.61 2259.45 1149.55 2255.65 1156.89 2251.05 1169.64 2241.82 1194.57 2234.02 1221.54 2227.65 1250.55L2234.04 1257.18C2240.95 1264.97 2249.98 1271.51 2261.12 1276.82ZM2204.55 1331.97C2202.58 1331.97 2200.54 1331.44 2198.42 1330.39 2190.11 1326.68 2185.95 1302.53 2185.95 1257.95 2185.95 1228.09 2189.05 1197.05 2195.25 1164.85 2202.85 1125.6 2213.3 1105.97 2226.58 1105.97 2229.41 1105.97 2231.54 1107.12 2232.97 1109.4 2234.39 1111.71 2235.11 1114.46 2235.11 1117.65 2235.11 1122.42 2233.95 1128.95 2231.64 1137.25 2228.1 1149.63 2224.72 1169.09 2221.53 1195.61 2225.27 1182.72 2229.21 1170.92 2233.37 1160.21 2237.53 1149.52 2242.54 1140.95 2248.39 1134.49 2254.22 1128.03 2261.75 1124.8 2270.98 1124.8 2283.72 1124.8 2293.64 1135.33 2300.72 1156.38 2306.21 1172.29 2308.95 1185.81 2308.95 1196.94 2308.95 1225.78 2306.12 1248.6 2300.46 1265.4 2294.78 1282.2 2287.61 1294.18 2278.95 1301.36 2270.26 1308.5 2261.41 1312.08 2252.38 1312.08 2244.58 1312.08 2236.17 1309.17 2227.14 1303.35L2227.65 1309.42C2227.65 1316.33 2225.08 1321.82 2219.94 1325.89 2214.8 1329.95 2209.67 1331.97 2204.55 1331.97Z" fill="#FFFFFF" fill-rule="evenodd" fill-opacity="1"/><g clip-path="url(#clip32)" filter="url(#fx13)" transform="translate(2351 1107)"><g><g><path d="M38.562 222.696C36.3881 222.696 34.1397 222.254 31.816 221.371 23.7207 218.205 19.6731 195.421 19.6731 153.017 19.6731 130.392 21.1972 113.693 24.2456 102.92L28.2932 95.4849C32.4404 88.614 37.9248 85.1782 44.7457 85.1782 53.5656 85.1782 57.9754 90.9208 57.9754 102.405 57.9754 105.742 57.7128 109.803 57.1883 114.589 56.4637 121.656 56.1016 130.048 56.1016 139.766 56.1016 152.845 57.001 167.336 58.7995 183.237 59.6993 188.881 60.1492 194.525 60.1492 200.169 60.1492 205.666 58.7995 210.046 56.1016 213.31 53.4029 216.574 50.3421 218.954 46.9195 220.451 43.4966 221.948 40.7105 222.696 38.562 222.696ZM37.213 65.8172C28.0435 65.8172 23.4589 61.314 23.4589 52.3081 23.4589 38.3455 27.3188 28.7996 35.0392 23.6709 39.3615 21.0207 43.6843 19.6955 48.0067 19.6955 56.4516 19.6955 60.6737 23.8549 60.6737 32.1737 60.6737 33.9405 60.4115 36.407 59.8867 39.5723 59.8867 40.6274 59.9741 41.4249 60.1492 41.9649 60.1492 49.2041 57.4884 54.995 52.1663 59.3384 46.8696 63.6572 41.885 65.8168 37.213 65.8168Z" fill="#FFFFFF" fill-rule="evenodd" fill-opacity="1"/></g></g></g><path d="M2379.84 1319.97C2377.67 1319.97 2375.42 1319.53 2373.09 1318.65 2365 1315.48 2360.95 1292.7 2360.95 1250.29 2360.95 1227.67 2362.47 1210.97 2365.52 1200.2L2369.57 1192.76C2373.72 1185.89 2379.2 1182.46 2386.02 1182.46 2394.84 1182.46 2399.25 1188.2 2399.25 1199.68 2399.25 1203.02 2398.99 1207.08 2398.47 1211.87 2397.74 1218.93 2397.38 1227.33 2397.38 1237.04 2397.38 1250.12 2398.28 1264.61 2400.08 1280.51 2400.98 1286.16 2401.43 1291.8 2401.43 1297.45 2401.43 1302.94 2400.08 1307.32 2397.38 1310.59 2394.68 1313.85 2391.62 1316.23 2388.2 1317.73 2384.77 1319.22 2381.99 1319.97 2379.84 1319.97ZM2378.49 1163.09C2369.32 1163.09 2364.74 1158.59 2364.74 1149.59 2364.74 1135.62 2368.6 1126.08 2376.32 1120.95 2380.64 1118.3 2384.96 1116.97 2389.28 1116.97 2397.73 1116.97 2401.95 1121.13 2401.95 1129.45 2401.95 1131.22 2401.69 1133.68 2401.16 1136.85 2401.16 1137.9 2401.25 1138.7 2401.43 1139.24 2401.43 1146.48 2398.77 1152.27 2393.44 1156.62 2388.15 1160.93 2383.16 1163.09 2378.49 1163.09Z" fill="#FFFFFF" fill-rule="evenodd" fill-opacity="1"/><g clip-path="url(#clip33)" filter="url(#fx14)" transform="translate(2441 1149)"><g><g><path d="M57.3602 147.109C58.5883 146.914 59.6443 146.816 60.5284 146.816 61.4125 146.816 61.9407 146.693 62.1125 146.449 62.3089 146.179 62.6284 145.959 63.0703 145.788 63.5121 145.592 65.5876 144.442 69.2959 142.337 70.0082 141.995 72.3905 139.706 76.4428 135.473 81.0352 129.82 83.872 125.77 84.9525 123.322 85.6399 121.903 86.1684 121.108 86.5367 120.937 87.4204 118.636 87.863 115.724 87.863 112.2 87.863 108.505 87.4576 104.846 86.6471 101.224 85.8612 97.6271 84.9403 95.3018 83.8843 94.2496 82.1161 93.3686 79.9056 92.928 77.2533 92.928 73.8883 92.928 70.524 93.3197 67.1594 94.1028 63.7944 94.8859 61.6703 95.5464 60.7865 96.0853 50.0049 105.776 44.6136 115.822 44.6136 126.222 44.6136 129.746 44.9699 132.646 45.6822 134.922 46.7382 138.813 47.8436 141.591 48.9977 143.255 50.1519 144.943 52.9396 146.228 57.3602 147.109ZM114.387 176.696C106.602 176.696 101.997 172.377 100.572 163.738 100.057 160.043 99.6146 153.619 99.246 144.466 84.0439 162.771 67.8717 171.924 50.7291 171.924 42.4039 171.924 35.1461 168.84 28.9573 162.674 22.7681 156.507 19.6739 147.17 19.6739 134.665 19.6739 118.098 26.1331 102.815 39.0512 88.817 51.9696 74.819 65.7594 67.8201 80.4211 67.8201 84.4984 67.8201 88.7471 68.7011 93.1677 70.463 91.7432 66.2294 89.9749 62.4365 87.863 59.0835 83.4421 53.0879 80.2984 49.564 78.432 48.5118 76.5901 47.4596 74.515 46.4071 72.2064 45.3549 64.593 41.831 60.7865 38.0377 60.7865 33.9753 60.7865 30.9899 62.4316 27.8574 65.7226 24.5781 68.989 21.3233 73.4468 19.6959 79.0952 19.6959 89.8767 19.6959 98.8042 23.3547 105.877 30.6719 112.95 37.9887 118.574 47.2395 122.749 58.423 126.9 69.6065 129.994 81.3286 132.033 93.5891 134.047 105.825 135.324 117.229 135.864 127.801 136.404 138.373 136.675 146.387 136.675 151.845 136.675 158.378 135.164 163.444 132.143 167.042 129.147 170.663 125.881 173.172 122.344 174.567 118.808 175.986 116.155 176.696 114.387 176.696Z" fill="#FFFFFF" fill-rule="evenodd" fill-opacity="1"/></g></g></g><path d="M2488.64 1286.39C2489.87 1286.19 2490.92 1286.09 2491.81 1286.09 2492.69 1286.09 2493.22 1285.97 2493.39 1285.73 2493.59 1285.46 2493.91 1285.24 2494.35 1285.06 2494.79 1284.87 2496.86 1283.72 2500.57 1281.61 2501.29 1281.27 2503.67 1278.98 2507.72 1274.75 2512.31 1269.1 2515.15 1265.05 2516.23 1262.6 2516.92 1261.18 2517.45 1260.39 2517.81 1260.21 2518.7 1257.91 2519.14 1255 2519.14 1251.48 2519.14 1247.78 2518.73 1244.12 2517.92 1240.5 2517.14 1236.9 2516.22 1234.58 2515.16 1233.53 2513.39 1232.65 2511.18 1232.21 2508.53 1232.21 2505.17 1232.21 2501.8 1232.6 2498.44 1233.38 2495.07 1234.16 2492.95 1234.82 2492.06 1235.36 2481.28 1245.05 2475.89 1255.1 2475.89 1265.5 2475.89 1269.02 2476.25 1271.92 2476.96 1274.2 2478.02 1278.09 2479.12 1280.87 2480.28 1282.53 2481.43 1284.22 2484.22 1285.51 2488.64 1286.39ZM2545.66 1315.97C2537.88 1315.97 2533.27 1311.65 2531.85 1303.02 2531.33 1299.32 2530.89 1292.9 2530.52 1283.74 2515.32 1302.05 2499.15 1311.2 2482.01 1311.2 2473.68 1311.2 2466.42 1308.12 2460.23 1301.95 2454.05 1295.78 2450.95 1286.45 2450.95 1273.94 2450.95 1257.37 2457.41 1242.09 2470.33 1228.09 2483.25 1214.1 2497.04 1207.1 2511.7 1207.1 2515.78 1207.1 2520.02 1207.98 2524.45 1209.74 2523.02 1205.51 2521.25 1201.71 2519.14 1198.36 2514.72 1192.37 2511.58 1188.84 2509.71 1187.79 2507.87 1186.74 2505.79 1185.68 2503.48 1184.63 2495.87 1181.11 2492.06 1177.31 2492.06 1173.25 2492.06 1170.27 2493.71 1167.13 2497 1163.86 2500.27 1160.6 2504.72 1158.97 2510.37 1158.97 2521.15 1158.97 2530.08 1162.63 2537.15 1169.95 2544.23 1177.27 2549.85 1186.52 2554.03 1197.7 2558.18 1208.88 2561.27 1220.61 2563.31 1232.87 2565.32 1245.1 2566.6 1256.51 2567.14 1267.08 2567.68 1277.65 2567.95 1285.66 2567.95 1291.12 2567.95 1297.66 2566.44 1302.72 2563.42 1306.32 2560.42 1309.94 2557.16 1312.45 2553.62 1313.84 2550.09 1315.26 2547.43 1315.97 2545.66 1315.97Z" fill="#FFFFFF" fill-rule="evenodd" fill-opacity="1"/><g clip-path="url(#clip34)" filter="url(#fx15)" transform="translate(2612 1149)"><g><g><path d="M38.2645 183.696 35.6088 183.696C31.3547 183.696 27.8999 179.616 25.2442 171.456 21.5313 159.376 19.6741 136.474 19.6741 102.75 19.6741 88.9199 20.2893 75.0774 21.5186 61.2229 22.9446 44.1882 25.871 33.1806 30.2975 28.2011 35.2401 22.531 40.4527 19.6957 45.9365 19.6957 48.076 19.6957 50.2028 20.2259 52.3177 21.2858L52.0597 21.2858C52.9449 21.6308 53.9653 22.432 55.1209 23.6895 56.2765 24.9223 57.0269 26.2533 57.371 27.6833 58.4283 31.2331 58.9571 33.7107 58.9571 35.116 58.9571 36.7185 58.785 38.4934 58.4405 40.4408 57.8994 43.8182 57.1863 52.0768 56.301 65.2163 58.2439 61.6664 60.4568 58.0303 62.9407 54.3076 71.793 41.3406 81.3583 34.8569 91.6369 34.8569 96.4078 34.8569 100.612 36.3238 104.252 39.2573 107.866 42.1911 109.674 45.6054 109.674 49.5003 109.674 52.3352 108.567 55.4415 106.354 58.8189 104.141 62.1962 101.092 63.8849 97.2066 63.8849 95.2641 63.8849 93.7149 63.2192 92.5589 61.8882 91.4033 60.5568 90.3829 58.7326 89.4977 56.4152L85.7725 54.3076C85.428 54.3076 85.0348 54.3939 84.592 54.5663 84.1495 54.7388 83.7559 54.9606 83.4118 55.232 83.0427 55.5031 82.502 55.947 81.7888 56.5631 81.1002 57.1795 80.3994 57.9314 79.6862 58.8189 71.5468 68.5813 66.0143 78.3928 63.0879 88.2538 60.1618 98.0899 58.0838 110.465 56.8544 125.38 57.5427 132.48 58.1084 138.027 58.5511 142.021 58.9939 146.014 59.4364 149.306 59.8792 151.894 60.3216 154.458 60.7272 157.342 61.0962 160.547 61.0962 165.675 58.883 170.815 54.4569 175.967 50.0308 181.12 44.6334 183.696 38.2645 183.696Z" fill="#FFFFFF" fill-rule="evenodd" fill-opacity="1"/></g></g></g><path d="M2640.54 1322.97 2637.89 1322.97C2633.63 1322.97 2630.18 1318.89 2627.52 1310.73 2623.81 1298.65 2621.95 1275.75 2621.95 1242.03 2621.95 1228.2 2622.57 1214.35 2623.8 1200.5 2625.22 1183.47 2628.15 1172.46 2632.57 1167.48 2637.52 1161.81 2642.73 1158.97 2648.21 1158.97 2650.35 1158.97 2652.48 1159.5 2654.59 1160.56L2654.34 1160.56C2655.22 1160.91 2656.24 1161.71 2657.4 1162.97 2658.55 1164.2 2659.3 1165.53 2659.65 1166.96 2660.71 1170.51 2661.23 1172.99 2661.23 1174.39 2661.23 1176 2661.06 1177.77 2660.72 1179.72 2660.18 1183.1 2659.46 1191.35 2658.58 1204.49 2660.52 1200.94 2662.73 1197.31 2665.22 1193.58 2674.07 1180.62 2683.64 1174.13 2693.91 1174.13 2698.69 1174.13 2702.89 1175.6 2706.53 1178.53 2710.14 1181.47 2711.95 1184.88 2711.95 1188.78 2711.95 1191.61 2710.84 1194.72 2708.63 1198.1 2706.42 1201.47 2703.37 1203.16 2699.48 1203.16 2697.54 1203.16 2695.99 1202.5 2694.84 1201.17 2693.68 1199.83 2692.66 1198.01 2691.78 1195.69L2688.05 1193.58C2687.71 1193.58 2687.31 1193.67 2686.87 1193.84 2686.43 1194.02 2686.03 1194.24 2685.69 1194.51 2685.32 1194.78 2684.78 1195.22 2684.07 1195.84 2683.38 1196.46 2682.68 1197.21 2681.96 1198.1 2673.82 1207.86 2668.29 1217.67 2665.37 1227.53 2662.44 1237.37 2660.36 1249.74 2659.13 1264.66 2659.82 1271.76 2660.39 1277.3 2660.83 1281.3 2661.27 1285.29 2661.71 1288.58 2662.16 1291.17 2662.6 1293.74 2663 1296.62 2663.37 1299.82 2663.37 1304.95 2661.16 1310.09 2656.73 1315.24 2652.31 1320.4 2646.91 1322.97 2640.54 1322.97Z" fill="#FFFFFF" fill-rule="evenodd" fill-opacity="1"/><g clip-path="url(#clip35)" filter="url(#fx16)" transform="translate(2733 1164)"><g><g><path d="M71.263 218.696C65.0588 218.696 59.3352 217.283 54.0915 214.458 48.872 211.608 44.7114 208.598 41.6097 205.429 38.5076 202.235 36.9566 200.024 36.9566 198.796 36.9566 197.371 37.7071 195.516 39.2093 193.231 40.7112 190.922 42.9758 189.767 46.0041 189.767 54.153 192.248 60.1723 193.489 64.0622 193.489 66.5483 193.489 68.9487 193.403 71.263 193.231 73.5526 193.035 74.8818 192.936 75.2513 192.936 76.3098 192.42 77.1961 191.806 77.9101 191.094L82.4152 184.718 85.3323 177.569C89.2468 167.472 92.5335 151.994 95.1922 131.136 95.02 131.136 94.9339 131.222 94.9339 131.394 93.6785 132.991 91.2412 135.423 87.622 138.69 83.9785 141.958 79.3254 145.053 73.663 147.977 67.976 150.9 61.5015 152.362 54.2388 152.362 50.152 152.362 46.607 151.65 43.6033 150.225 27.6504 144.574 19.674 131.394 19.674 110.683 19.674 89.4563 22.4189 69.9123 27.9095 52.0516 34.6546 30.4809 43.7883 19.6956 55.31 19.6956 57.7965 19.6956 60.3199 20.6663 62.8802 22.6071 65.4406 24.5478 66.7206 27.9136 66.7206 32.7044 66.7206 36.5863 66.105 39.9398 64.8746 42.765 59.0149 63.8196 55.8271 82.9209 55.31 100.069 55.31 112.992 57.3409 121.837 61.4027 126.603L64.0618 127.929C66.7206 127.929 69.7365 126.603 73.1093 123.949 77.9097 119.724 82.2552 114.245 86.1448 107.514 90.576 98.3251 92.8783 92.6622 93.0506 90.5249 94.1088 87.1592 95.1799 82.2946 96.2631 75.9314L95.4506 54.7049C95.4506 42.4945 97.4938 33.7362 101.581 28.4293 105.643 23.1228 110.247 20.4695 115.392 20.4695 122.654 20.4695 127.357 25.4322 129.499 35.3577 131.616 45.2586 132.674 62.3209 132.674 86.5449 132.674 113.619 130.902 135.373 127.357 151.809 121.325 179.94 112.733 198.697 101.581 208.082 97.6665 211.448 95.0938 213.352 93.8627 213.794 92.6073 214.236 91.1424 214.716 89.4683 215.231 87.7942 215.772 85.5295 216.484 82.6736 217.369 79.8425 218.253 76.0387 218.696 71.263 218.696Z" fill="#FFFFFF" fill-rule="evenodd" fill-opacity="1"/></g></g></g><path d="M2794.54 1372.97C2788.34 1372.97 2782.61 1371.56 2777.37 1368.73 2772.15 1365.89 2767.99 1362.88 2764.89 1359.71 2761.78 1356.51 2760.23 1354.3 2760.23 1353.07 2760.23 1351.65 2760.98 1349.79 2762.49 1347.51 2763.99 1345.2 2766.25 1344.04 2769.28 1344.04 2777.43 1346.53 2783.45 1347.77 2787.34 1347.77 2789.83 1347.77 2792.23 1347.68 2794.54 1347.51 2796.83 1347.31 2798.16 1347.21 2798.53 1347.21 2799.59 1346.7 2800.47 1346.08 2801.19 1345.37L2805.69 1339 2808.61 1331.85C2812.52 1321.75 2815.81 1306.27 2818.47 1285.41 2818.3 1285.41 2818.21 1285.5 2818.21 1285.67 2816.96 1287.27 2814.52 1289.7 2810.9 1292.97 2807.26 1296.23 2802.6 1299.33 2796.94 1302.25 2791.25 1305.18 2784.78 1306.64 2777.52 1306.64 2773.43 1306.64 2769.88 1305.93 2766.88 1304.5 2750.93 1298.85 2742.95 1285.67 2742.95 1264.96 2742.95 1243.73 2745.7 1224.19 2751.19 1206.33 2757.93 1184.76 2767.07 1173.97 2778.59 1173.97 2781.07 1173.97 2783.6 1174.94 2786.16 1176.88 2788.72 1178.83 2790 1182.19 2790 1186.98 2790 1190.86 2789.38 1194.22 2788.15 1197.04 2782.29 1218.1 2779.1 1237.2 2778.59 1254.35 2778.59 1267.27 2780.62 1276.11 2784.68 1280.88L2787.34 1282.21C2790 1282.21 2793.01 1280.88 2796.39 1278.23 2801.19 1274 2805.53 1268.52 2809.42 1261.79 2813.85 1252.6 2816.16 1246.94 2816.33 1244.8 2817.39 1241.44 2818.46 1236.57 2819.54 1230.21L2818.73 1208.98C2818.73 1196.77 2820.77 1188.01 2824.86 1182.71 2828.92 1177.4 2833.52 1174.75 2838.67 1174.75 2845.93 1174.75 2850.63 1179.71 2852.78 1189.63 2854.89 1199.54 2855.95 1216.6 2855.95 1240.82 2855.95 1267.9 2854.18 1289.65 2850.63 1306.09 2844.6 1334.22 2836.01 1352.97 2824.86 1362.36 2820.94 1365.73 2818.37 1367.63 2817.14 1368.07 2815.88 1368.51 2814.42 1368.99 2812.75 1369.51 2811.07 1370.05 2808.81 1370.76 2805.95 1371.65 2803.12 1372.53 2799.32 1372.97 2794.54 1372.97Z" fill="#FFFFFF" fill-rule="evenodd" fill-opacity="1"/><path d="M1174.45 1237.47C1174.45 671.381 1633.36 212.473 2199.45 212.473 2765.54 212.473 3224.45 671.381 3224.45 1237.47 3224.45 1803.57 2765.54 2262.47 2199.45 2262.47 1633.36 2262.47 1174.45 1803.57 1174.45 1237.47Z" stroke="#FFFFFF" stroke-width="156.887" stroke-linecap="butt" stroke-linejoin="miter" stroke-miterlimit="8" stroke-opacity="1" fill="none" fill-rule="evenodd"/></g></g></svg>