<svg width="2214" height="2210" xmlns="http://www.w3.org/2000/svg" xmlns:xlink="http://www.w3.org/1999/xlink" xml:space="preserve" overflow="hidden"><defs><filter id="fx0" x="-10%" y="-10%" width="120%" height="120%" filterUnits="userSpaceOnUse" primitiveUnits="userSpaceOnUse"><feComponentTransfer color-interpolation-filters="sRGB"><feFuncR type="discrete" tableValues="0.000000 0.000000"/><feFuncG type="discrete" tableValues="0.000000 0.000000"/><feFuncB type="discrete" tableValues="0.000000 0.000000"/><feFuncA type="linear" slope="0.400000" intercept="0.000000"/></feComponentTransfer><feGaussianBlur stdDeviation="6.111111 6.111111"/></filter><filter id="fx1" x="-10%" y="-10%" width="120%" height="120%" filterUnits="userSpaceOnUse" primitiveUnits="userSpaceOnUse"><feComponentTransfer color-interpolation-filters="sRGB"><feFuncR type="discrete" tableValues="0.000000 0.000000"/><feFuncG type="discrete" tableValues="0.000000 0.000000"/><feFuncB type="discrete" tableValues="0.000000 0.000000"/><feFuncA type="linear" slope="0.400000" intercept="0.000000"/></feComponentTransfer><feGaussianBlur stdDeviation="6.111111 6.111111"/></filter><filter id="fx2" x="-10%" y="-10%" width="120%" height="120%" filterUnits="userSpaceOnUse" primitiveUnits="userSpaceOnUse"><feComponentTransfer color-interpolation-filters="sRGB"><feFuncR type="discrete" tableValues="0.000000 0.000000"/><feFuncG type="discrete" tableValues="0.000000 0.000000"/><feFuncB type="discrete" tableValues="0.000000 0.000000"/><feFuncA type="linear" slope="0.400000" intercept="0.000000"/></feComponentTransfer><feGaussianBlur stdDeviation="6.111111 6.111111"/></filter><filter id="fx3" x="-10%" y="-10%" width="120%" height="120%" filterUnits="userSpaceOnUse" primitiveUnits="userSpaceOnUse"><feComponentTransfer color-interpolation-filters="sRGB"><feFuncR type="discrete" tableValues="0.000000 0.000000"/><feFuncG type="discrete" tableValues="0.000000 0.000000"/><feFuncB type="discrete" tableValues="0.000000 0.000000"/><feFuncA type="linear" slope="0.400000" intercept="0.000000"/></feComponentTransfer><feGaussianBlur stdDeviation="6.111111 6.111111"/></filter><filter id="fx4" x="-10%" y="-10%" width="120%" height="120%" filterUnits="userSpaceOnUse" primitiveUnits="userSpaceOnUse"><feComponentTransfer color-interpolation-filters="sRGB"><feFuncR type="discrete" tableValues="0.000000 0.000000"/><feFuncG type="discrete" tableValues="0.000000 0.000000"/><feFuncB type="discrete" tableValues="0.000000 0.000000"/><feFuncA type="linear" slope="0.400000" intercept="0.000000"/></feComponentTransfer><feGaussianBlur stdDeviation="6.111111 6.111111"/></filter><filter id="fx5" x="-10%" y="-10%" width="120%" height="120%" filterUnits="userSpaceOnUse" primitiveUnits="userSpaceOnUse"><feComponentTransfer color-interpolation-filters="sRGB"><feFuncR type="discrete" tableValues="0.000000 0.000000"/><feFuncG type="discrete" tableValues="0.000000 0.000000"/><feFuncB type="discrete" tableValues="0.000000 0.000000"/><feFuncA type="linear" slope="0.400000" intercept="0.000000"/></feComponentTransfer><feGaussianBlur stdDeviation="6.111111 6.111111"/></filter><filter id="fx6" x="-10%" y="-10%" width="120%" height="120%" filterUnits="userSpaceOnUse" primitiveUnits="userSpaceOnUse"><feComponentTransfer color-interpolation-filters="sRGB"><feFuncR type="discrete" tableValues="0.000000 0.000000"/><feFuncG type="discrete" tableValues="0.000000 0.000000"/><feFuncB type="discrete" tableValues="0.000000 0.000000"/><feFuncA type="linear" slope="0.400000" intercept="0.000000"/></feComponentTransfer><feGaussianBlur stdDeviation="6.111111 6.111111"/></filter><filter id="fx7" x="-10%" y="-10%" width="120%" height="120%" filterUnits="userSpaceOnUse" primitiveUnits="userSpaceOnUse"><feComponentTransfer color-interpolation-filters="sRGB"><feFuncR type="discrete" tableValues="0.000000 0.000000"/><feFuncG type="discrete" tableValues="0.000000 0.000000"/><feFuncB type="discrete" tableValues="0.000000 0.000000"/><feFuncA type="linear" slope="0.400000" intercept="0.000000"/></feComponentTransfer><feGaussianBlur stdDeviation="6.111111 6.111111"/></filter><filter id="fx8" x="-10%" y="-10%" width="120%" height="120%" filterUnits="userSpaceOnUse" primitiveUnits="userSpaceOnUse"><feComponentTransfer color-interpolation-filters="sRGB"><feFuncR type="discrete" tableValues="0.000000 0.000000"/><feFuncG type="discrete" tableValues="0.000000 0.000000"/><feFuncB type="discrete" tableValues="0.000000 0.000000"/><feFuncA type="linear" slope="0.400000" intercept="0.000000"/></feComponentTransfer><feGaussianBlur stdDeviation="6.111111 6.111111"/></filter><filter id="fx9" x="-10%" y="-10%" width="120%" height="120%" filterUnits="userSpaceOnUse" primitiveUnits="userSpaceOnUse"><feComponentTransfer color-interpolation-filters="sRGB"><feFuncR type="discrete" tableValues="0.000000 0.000000"/><feFuncG type="discrete" tableValues="0.000000 0.000000"/><feFuncB type="discrete" tableValues="0.000000 0.000000"/><feFuncA type="linear" slope="0.400000" intercept="0.000000"/></feComponentTransfer><feGaussianBlur stdDeviation="6.111111 6.111111"/></filter><filter id="fx10" x="-10%" y="-10%" width="120%" height="120%" filterUnits="userSpaceOnUse" primitiveUnits="userSpaceOnUse"><feComponentTransfer color-interpolation-filters="sRGB"><feFuncR type="discrete" tableValues="0.000000 0.000000"/><feFuncG type="discrete" tableValues="0.000000 0.000000"/><feFuncB type="discrete" tableValues="0.000000 0.000000"/><feFuncA type="linear" slope="0.400000" intercept="0.000000"/></feComponentTransfer><feGaussianBlur stdDeviation="6.111111 6.111111"/></filter><filter id="fx11" x="-10%" y="-10%" width="120%" height="120%" filterUnits="userSpaceOnUse" primitiveUnits="userSpaceOnUse"><feComponentTransfer color-interpolation-filters="sRGB"><feFuncR type="discrete" tableValues="0.000000 0.000000"/><feFuncG type="discrete" tableValues="0.000000 0.000000"/><feFuncB type="discrete" tableValues="0.000000 0.000000"/><feFuncA type="linear" slope="0.400000" intercept="0.000000"/></feComponentTransfer><feGaussianBlur stdDeviation="6.111111 6.111111"/></filter><filter id="fx12" x="-10%" y="-10%" width="120%" height="120%" filterUnits="userSpaceOnUse" primitiveUnits="userSpaceOnUse"><feComponentTransfer color-interpolation-filters="sRGB"><feFuncR type="discrete" tableValues="0.000000 0.000000"/><feFuncG type="discrete" tableValues="0.000000 0.000000"/><feFuncB type="discrete" tableValues="0.000000 0.000000"/><feFuncA type="linear" slope="0.400000" intercept="0.000000"/></feComponentTransfer><feGaussianBlur stdDeviation="6.111111 6.111111"/></filter><filter id="fx13" x="-10%" y="-10%" width="120%" height="120%" filterUnits="userSpaceOnUse" primitiveUnits="userSpaceOnUse"><feComponentTransfer color-interpolation-filters="sRGB"><feFuncR type="discrete" tableValues="0.000000 0.000000"/><feFuncG type="discrete" tableValues="0.000000 0.000000"/><feFuncB type="discrete" tableValues="0.000000 0.000000"/><feFuncA type="linear" slope="0.400000" intercept="0.000000"/></feComponentTransfer><feGaussianBlur stdDeviation="6.111111 6.111111"/></filter><filter id="fx14" x="-10%" y="-10%" width="120%" height="120%" filterUnits="userSpaceOnUse" primitiveUnits="userSpaceOnUse"><feComponentTransfer color-interpolation-filters="sRGB"><feFuncR type="discrete" tableValues="0.000000 0.000000"/><feFuncG type="discrete" tableValues="0.000000 0.000000"/><feFuncB type="discrete" tableValues="0.000000 0.000000"/><feFuncA type="linear" slope="0.400000" intercept="0.000000"/></feComponentTransfer><feGaussianBlur stdDeviation="6.111111 6.111111"/></filter><filter id="fx15" x="-10%" y="-10%" width="120%" height="120%" filterUnits="userSpaceOnUse" primitiveUnits="userSpaceOnUse"><feComponentTransfer color-interpolation-filters="sRGB"><feFuncR type="discrete" tableValues="0.000000 0.000000"/><feFuncG type="discrete" tableValues="0.000000 0.000000"/><feFuncB type="discrete" tableValues="0.000000 0.000000"/><feFuncA type="linear" slope="0.400000" intercept="0.000000"/></feComponentTransfer><feGaussianBlur stdDeviation="6.111111 6.111111"/></filter><linearGradient x1="2199.45" y1="288.451" x2="2199.45" y2="2186.45" gradientUnits="userSpaceOnUse" spreadMethod="reflect" id="fill16"><stop offset="0" stop-color="#E16D46" stop-opacity="1"/><stop offset="0.5" stop-color="#D14D49" stop-opacity="1"/><stop offset="1" stop-color="#C22D4D" stop-opacity="1"/></linearGradient><clipPath id="clip17"><rect x="1.34082" y="1.3407" width="786.667" height="787.667"/></clipPath><clipPath id="clip18"><rect x="1.34058" y="1.34048" width="520.667" height="520.667"/></clipPath><clipPath id="clip19"><rect x="1.34058" y="1.34076" width="358.667" height="358.667"/></clipPath><clipPath id="clip20"><rect x="1.34058" y="1.3407" width="512.667" height="512.667"/></clipPath><clipPath id="clip21"><rect x="1.34058" y="1.3407" width="203.667" height="203.667"/></clipPath><clipPath id="clip22"><rect x="1.34082" y="1.341" width="253.667" height="253.667"/></clipPath><clipPath id="clip23"><rect x="-14.7566" y="0.914429" width="343.764" height="407.969"/></clipPath><clipPath id="clip24"><rect x="1.34045" y="1.34045" width="159.667" height="262.667"/></clipPath><clipPath id="clip25"><rect x="1.34058" y="1.3407" width="121.667" height="196.667"/></clipPath><clipPath id="clip26"><rect x="1.34045" y="1.34045" width="153.667" height="194.667"/></clipPath><clipPath id="clip27"><rect x="1.34045" y="1.34094" width="126.667" height="199.667"/></clipPath><clipPath id="clip28"><rect x="1.34058" y="1.34045" width="159.667" height="262.667"/></clipPath><clipPath id="clip29"><rect x="1.3396" y="1.34058" width="77.6675" height="239.667"/></clipPath><clipPath id="clip30"><rect x="1.34058" y="1.34094" width="153.667" height="193.667"/></clipPath><clipPath id="clip31"><rect x="1.34082" y="1.34058" width="126.667" height="200.667"/></clipPath><clipPath id="clip32"><rect x="1.34058" y="1.34058" width="149.667" height="235.667"/></clipPath></defs><g transform="translate(-1090 -132)"><g><path d="M1250.45 1237.45C1250.45 713.333 1675.33 288.451 2199.45 288.451 2723.57 288.451 3148.45 713.333 3148.45 1237.45 3148.45 1761.57 2723.57 2186.45 2199.45 2186.45 1675.33 2186.45 1250.45 1761.57 1250.45 1237.45Z" stroke="#FFFFFF" stroke-width="0" stroke-linecap="butt" stroke-linejoin="miter" stroke-miterlimit="8" stroke-opacity="1" fill="url(#fill16)" fill-rule="evenodd"/><g clip-path="url(#clip17)" filter="url(#fx0)" transform="translate(1432 1440)"><g><g><path d="M32.6741 395.174C32.6741 194.971 194.747 32.6739 394.674 32.6739 594.601 32.6739 756.674 194.971 756.674 395.174 756.674 595.378 594.601 757.674 394.674 757.674 194.747 757.674 32.6741 595.378 32.6741 395.174Z" stroke="#FFFFFF" stroke-width="26" stroke-linecap="butt" stroke-linejoin="miter" stroke-miterlimit="8" stroke-opacity="1" fill="none" fill-rule="evenodd"/></g></g></g><path d="M1454.95 1825.45C1454.95 1625.25 1617.02 1462.95 1816.95 1462.95 2016.88 1462.95 2178.95 1625.25 2178.95 1825.45 2178.95 2025.65 2016.88 2187.95 1816.95 2187.95 1617.02 2187.95 1454.95 2025.66 1454.95 1825.45Z" stroke="#FFFFFF" stroke-width="26.1477" stroke-linecap="butt" stroke-linejoin="miter" stroke-miterlimit="8" stroke-opacity="1" fill="none" fill-rule="evenodd"/><g clip-path="url(#clip18)" filter="url(#fx1)" transform="translate(2143 456)"><g><g><path d="M32.6739 261.674C32.6739 135.201 135.201 32.6738 261.674 32.6738 388.147 32.6738 490.674 135.201 490.674 261.674 490.674 388.148 388.147 490.674 261.674 490.674 135.201 490.674 32.6739 388.148 32.6739 261.674Z" stroke="#FFFFFF" stroke-width="26" stroke-linecap="butt" stroke-linejoin="miter" stroke-miterlimit="8" stroke-opacity="1" fill="none" fill-rule="evenodd"/></g></g></g><path d="M2165.95 707.951C2165.95 581.478 2268.48 478.951 2394.95 478.951 2521.42 478.951 2623.95 581.478 2623.95 707.951 2623.95 834.425 2521.42 936.952 2394.95 936.952 2268.48 936.952 2165.95 834.425 2165.95 707.951Z" stroke="#FFFFFF" stroke-width="26.1477" stroke-linecap="butt" stroke-linejoin="miter" stroke-miterlimit="8" stroke-opacity="1" fill="none" fill-rule="evenodd"/><g clip-path="url(#clip19)" filter="url(#fx2)" transform="translate(2201 498)"><g><g><path d="M32.6741 180.674C32.6741 98.9361 98.9362 32.6741 180.674 32.6741 262.413 32.6741 328.674 98.9361 328.674 180.674 328.674 262.412 262.413 328.674 180.674 328.674 98.9362 328.674 32.6741 262.412 32.6741 180.674Z" stroke="#FFFFFF" stroke-width="26" stroke-linecap="butt" stroke-linejoin="miter" stroke-miterlimit="8" stroke-opacity="1" fill="none" fill-rule="evenodd"/></g></g></g><path d="M2223.95 668.952C2223.95 587.213 2290.21 520.951 2371.95 520.951 2453.69 520.951 2519.95 587.213 2519.95 668.952 2519.95 750.69 2453.69 816.952 2371.95 816.952 2290.21 816.952 2223.95 750.69 2223.95 668.952Z" stroke="#FFFFFF" stroke-width="26.1477" stroke-linecap="butt" stroke-linejoin="miter" stroke-miterlimit="8" stroke-opacity="1" fill="none" fill-rule="evenodd"/><g clip-path="url(#clip20)" filter="url(#fx3)" transform="translate(1568 1494)"><g><g><path d="M32.6738 257.674C32.6738 133.41 133.41 32.6739 257.674 32.6739 381.938 32.6739 482.674 133.41 482.674 257.674 482.674 381.938 381.938 482.674 257.674 482.674 133.41 482.674 32.6738 381.938 32.6738 257.674Z" stroke="#FFFFFF" stroke-width="26" stroke-linecap="butt" stroke-linejoin="miter" stroke-miterlimit="8" stroke-opacity="1" fill="none" fill-rule="evenodd"/></g></g></g><path d="M1590.95 1741.95C1590.95 1617.69 1691.69 1516.95 1815.95 1516.95 1940.22 1516.95 2040.95 1617.69 2040.95 1741.95 2040.95 1866.22 1940.22 1966.95 1815.95 1966.95 1691.69 1966.95 1590.95 1866.22 1590.95 1741.95Z" stroke="#FFFFFF" stroke-width="26.1477" stroke-linecap="butt" stroke-linejoin="miter" stroke-miterlimit="8" stroke-opacity="1" fill="none" fill-rule="evenodd"/><g clip-path="url(#clip21)" filter="url(#fx4)" transform="translate(1791 606)"><g><g><path d="M186.674 103.174C186.674 107.594 183.771 111.488 179.536 112.751L154.388 121.078C138.672 126.338 126.338 138.672 121.078 154.387L112.751 179.536C111.488 183.771 107.594 186.674 103.174 186.674 98.7547 186.674 94.8604 183.771 93.5981 179.536L85.2703 154.387C80.0105 138.672 67.6766 126.338 51.961 121.078L26.8126 112.751C22.5773 111.488 19.674 107.594 19.674 103.174 19.674 98.7548 22.5773 94.8604 26.8126 93.5978L51.961 85.2704C58.473 83.0911 64.4045 79.6967 69.4927 75.3511 76.6836 69.2084 82.1902 61.1646 85.2703 51.961L93.5981 26.8123C94.8604 22.5774 98.7547 19.674 103.174 19.674 107.594 19.674 111.488 22.577 112.751 26.8123L121.078 51.961C126.338 67.6767 138.672 80.0106 154.388 85.2704L179.536 93.5978C183.771 94.8604 186.674 98.7548 186.674 103.174Z" fill="#FFFFFF" fill-rule="evenodd" fill-opacity="1"/></g></g></g><path d="M1967.95 699.452C1967.95 703.871 1965.05 707.766 1960.81 709.028L1935.66 717.355C1919.95 722.616 1907.62 734.949 1902.36 750.665L1894.03 775.813C1892.77 780.049 1888.87 782.952 1884.45 782.952 1880.03 782.952 1876.14 780.049 1874.88 775.813L1866.55 750.665C1861.29 734.949 1848.95 722.615 1833.24 717.355L1808.09 709.028C1803.85 707.766 1800.95 703.871 1800.95 699.452 1800.95 695.032 1803.85 691.138 1808.09 689.875L1833.24 681.548C1839.75 679.368 1845.68 675.974 1850.77 671.628 1857.96 665.486 1863.47 657.442 1866.55 648.238L1874.88 623.09C1876.14 618.855 1880.03 615.951 1884.45 615.951 1888.87 615.951 1892.77 618.854 1894.03 623.09L1902.36 648.238C1907.62 663.954 1919.95 676.288 1935.66 681.548L1960.81 689.875C1965.05 691.138 1967.95 695.032 1967.95 699.452Z" fill="#FFFFFF" fill-rule="evenodd" fill-opacity="1"/><g clip-path="url(#clip22)" filter="url(#fx5)" transform="translate(1576 732)"><g><g><path d="M227.918 115.893C233.165 117.742 236.674 122.697 236.674 128.257 236.674 133.817 233.165 138.773 227.918 140.623L194.698 151.411C174.22 158.213 158.153 174.268 151.345 194.73L140.549 227.925C138.698 233.168 133.738 236.675 128.174 236.675 122.61 236.675 117.651 233.168 115.8 227.925L105.003 194.73C98.2403 174.205 82.1663 158.081 61.651 151.245L28.4308 140.457C23.1832 138.607 19.6742 133.652 19.6742 128.092 19.6742 122.532 23.1836 117.576 28.4308 115.727L61.651 104.938C81.8748 97.9606 97.6689 81.9331 104.339 61.6194L115.135 28.4243C116.986 23.1811 121.946 19.6744 127.51 19.6744 133.074 19.6744 138.033 23.1811 139.884 28.4243L150.681 61.6194C157.488 82.0812 173.555 98.1361 194.033 104.938L227.253 115.727Z" fill="#FFFFFF" fill-rule="evenodd" fill-opacity="1"/></g></g></g><path d="M1794.2 838.17C1799.44 840.02 1802.95 844.975 1802.95 850.535 1802.95 856.095 1799.44 861.05 1794.2 862.9L1760.97 873.688C1740.5 880.49 1724.43 896.545 1717.62 917.007L1706.83 950.202C1704.97 955.445 1700.02 958.952 1694.45 958.952 1688.89 958.952 1683.93 955.445 1682.08 950.202L1671.28 917.007C1664.52 896.482 1648.44 880.358 1627.93 873.522L1594.71 862.734C1589.46 860.884 1585.95 855.929 1585.95 850.369 1585.95 844.809 1589.46 839.853 1594.71 838.004L1627.93 827.216C1648.15 820.238 1663.95 804.21 1670.62 783.897L1681.41 750.702C1683.26 745.458 1688.22 741.952 1693.79 741.952 1699.35 741.952 1704.31 745.458 1706.16 750.702L1716.96 783.897C1723.77 804.359 1739.83 820.413 1760.31 827.216L1793.53 838.004Z" fill="#FFFFFF" fill-rule="evenodd" fill-opacity="1"/><g clip-path="url(#clip23)" filter="url(#fx6)" transform="translate(2394 1475)"><g><g><path d="M310.674 45.9152C310.674 72.1225 284.527 72.1225 284.527 72.1225L270.823 71.6997C243.566 74.1378 232.052 88.6125 252.723 110.434 273.395 132.254 284.926 163.833 281.462 179.015 268.193 237.166 183.488 216.451 146.228 208.264 141.396 207.203 153.67 214.803 157.225 218.249 164.768 225.562 174.375 231.435 179.355 240.694 187.565 255.961 202.439 274.004 195.832 290.034 181.982 323.64 120.757 313.713 94.1323 314.235 85.8721 314.397 72.7698 309.416 69.5024 317.022 66.0659 325.022 79.3075 331.437 84.8617 338.136 84.8617 338.136 100.55 359.102 79.6324 374.826 58.7144 390.551 43.0259 369.585 43.0259 369.585 15.5336 330.546 3.57689 292.34 57.0762 266.274 68.1758 260.865 105.718 261.787 119.09 261.853 120.99 261.862 123.346 261.84 125.884 261.865 122.642 258.56 119.728 255.163 117.718 252.591 96.4687 225.383 77.9906 202.715 112.96 167.823 127.099 153.715 166.674 160.191 184.715 161.966 193.038 162.785 201.348 163.732 209.676 164.501 213.611 164.864 217.668 164.541 221.595 164.909 213.719 157.019 189.15 117.142 187.942 106.101 182.101 52.7267 217.684 32.1674 259.857 21.745 269.961 19.2479 284.527 19.7076 284.527 19.7076 284.527 19.7076 310.674 19.7076 310.674 45.9149Z" fill="#FFFFFF" fill-rule="evenodd" fill-opacity="1"/></g></g></g><path d="M2694.95 1511.19C2694.95 1537.4 2668.8 1537.4 2668.8 1537.4L2655.1 1536.98C2627.84 1539.42 2616.33 1553.89 2637 1575.71 2657.67 1597.53 2669.2 1629.11 2665.74 1644.29 2652.47 1702.44 2567.77 1681.73 2530.5 1673.54 2525.67 1672.48 2537.95 1680.08 2541.5 1683.53 2549.05 1690.84 2558.65 1696.71 2563.63 1705.97 2571.84 1721.24 2586.72 1739.28 2580.11 1755.31 2566.26 1788.92 2505.03 1778.99 2478.41 1779.51 2470.15 1779.67 2457.05 1774.69 2453.78 1782.3 2450.34 1790.3 2463.58 1796.71 2469.14 1803.41 2469.14 1803.41 2484.83 1824.38 2463.91 1840.1 2442.99 1855.83 2427.3 1834.86 2427.3 1834.86 2399.81 1795.82 2387.85 1757.62 2441.35 1731.55 2452.45 1726.14 2490 1727.06 2503.37 1727.13 2505.27 1727.14 2507.62 1727.12 2510.16 1727.14 2506.92 1723.84 2504 1720.44 2502 1717.87 2480.75 1690.66 2462.27 1667.99 2497.24 1633.1 2511.38 1618.99 2550.95 1625.47 2568.99 1627.24 2577.32 1628.06 2585.63 1629.01 2593.95 1629.78 2597.89 1630.14 2601.95 1629.82 2605.87 1630.19 2598 1622.3 2573.43 1582.42 2572.22 1571.38 2566.38 1518 2601.96 1497.44 2644.13 1487.02 2654.24 1484.53 2668.8 1484.98 2668.8 1484.98 2668.8 1484.98 2694.95 1484.98 2694.95 1511.19Z" fill="#FFFFFF" fill-rule="evenodd" fill-opacity="1"/><g clip-path="url(#clip24)" filter="url(#fx7)" transform="translate(1527 1085)"><g><g><path d="M94.847 190.519C103.704 179.711 108.132 149.107 108.132 98.7042L107.874 93.3984 108.132 89.1614C107.788 88.8177 107.616 88.2035 107.616 87.3193 107.616 83.4141 105.93 77.0396 102.559 68.1972 101.133 63.7761 99.0044 61.4794 96.1753 61.3075 93.174 63.2478 89.3727 70.5921 84.7722 83.34 75.5463 108.271 67.747 135.241 61.3748 164.249L67.7593 170.881C74.6726 178.668 83.7018 185.214 94.8466 190.519ZM38.2736 245.674C36.3052 245.674 34.2633 245.146 32.1474 244.09 23.8317 240.381 19.6738 216.236 19.6738 171.655 19.6738 141.787 22.7739 110.752 28.9739 78.5506 36.5761 39.2995 47.0197 19.6738 60.3051 19.6738 63.1343 19.6738 65.2625 20.8158 66.6892 23.1006 68.1163 25.4092 68.8298 28.1605 68.8298 31.3533 68.8298 36.1186 67.6733 42.6523 65.3609 50.9541 61.8179 63.3338 58.4473 82.7876 55.2493 109.315 58.9887 96.4198 62.9375 84.6175 67.0954 73.9081 71.2532 63.2233 76.2598 54.651 82.1152 48.191 87.946 41.7312 95.4744 38.5012 104.7 38.5012 117.444 38.5012 127.359 49.0261 134.445 70.0762 139.931 85.9928 142.674 99.5144 142.674 110.642 142.674 139.478 139.845 162.296 134.186 179.098 128.503 195.898 121.332 207.885 112.671 215.057 103.987 222.205 95.1301 225.779 86.1009 225.779 78.302 225.779 69.8876 222.868 60.8588 217.047L61.3756 223.126C61.3756 230.028 58.8046 235.518 53.6624 239.595 48.5205 243.648 43.3909 245.674 38.2736 245.674Z" fill="#FFFFFF" fill-rule="evenodd" fill-opacity="1"/></g></g></g><path d="M1612.12 1265.8C1620.98 1254.99 1625.41 1224.38 1625.41 1173.98L1625.15 1168.68 1625.41 1164.44C1625.06 1164.09 1624.89 1163.48 1624.89 1162.6 1624.89 1158.69 1623.21 1152.32 1619.84 1143.47 1618.41 1139.05 1616.28 1136.76 1613.45 1136.58 1610.45 1138.53 1606.65 1145.87 1602.05 1158.62 1592.82 1183.55 1585.02 1210.52 1578.65 1239.53L1585.04 1246.16C1591.95 1253.94 1600.98 1260.49 1612.12 1265.8ZM1555.55 1320.95C1553.58 1320.95 1551.54 1320.42 1549.42 1319.37 1541.11 1315.66 1536.95 1291.51 1536.95 1246.93 1536.95 1217.06 1540.05 1186.03 1546.25 1153.83 1553.85 1114.58 1564.3 1094.95 1577.58 1094.95 1580.41 1094.95 1582.54 1096.09 1583.97 1098.38 1585.39 1100.69 1586.11 1103.44 1586.11 1106.63 1586.11 1111.4 1584.95 1117.93 1582.64 1126.23 1579.1 1138.61 1575.72 1158.06 1572.53 1184.59 1576.27 1171.7 1580.21 1159.89 1584.37 1149.19 1588.53 1138.5 1593.54 1129.93 1599.39 1123.47 1605.22 1117.01 1612.75 1113.78 1621.98 1113.78 1634.72 1113.78 1644.64 1124.3 1651.72 1145.35 1657.21 1161.27 1659.95 1174.79 1659.95 1185.92 1659.95 1214.76 1657.12 1237.57 1651.46 1254.38 1645.78 1271.18 1638.61 1283.16 1629.95 1290.33 1621.26 1297.48 1612.41 1301.06 1603.38 1301.06 1595.58 1301.06 1587.16 1298.15 1578.14 1292.32L1578.65 1298.4C1578.65 1305.31 1576.08 1310.8 1570.94 1314.87 1565.8 1318.93 1560.67 1320.95 1555.55 1320.95Z" fill="#FFFFFF" fill-rule="evenodd" fill-opacity="1"/><g clip-path="url(#clip25)" filter="url(#fx8)" transform="translate(1690 1143)"><g><g><path d="M55.9611 88.2876C61.2551 84.7558 64.7845 82.107 66.5491 80.3411 70.0789 76.098 72.2849 73.1791 73.1669 71.5848L74.2333 70.2606C75.1156 68.3227 75.8142 66.9127 76.3287 66.0294 76.8681 65.1465 77.3094 63.1109 77.6524 59.9223 77.3094 56.3906 76.6472 54.0972 75.6672 53.0427 74.711 51.9881 72.9096 51.3749 70.2626 51.2032L66.2919 55.6915 59.1226 71.5848C58.6081 71.7565 57.9463 74.3195 57.1374 79.2739 56.3531 84.2038 55.9611 87.2081 55.9611 88.2876ZM73.4245 179.674C73.253 179.674 71.3164 179.355 67.6156 178.718 63.8899 178.104 59.3802 176.608 54.0858 174.229 48.7921 171.85 43.5467 168.048 38.3507 162.824 33.1543 157.625 28.7426 150.475 25.1153 141.376 21.4879 132.276 19.6739 120.663 19.6739 106.536 19.6739 85.8843 24.6249 66.6427 34.527 48.8118 45.4588 29.3867 59.7477 19.674 77.3952 19.674 81.4635 19.674 85.6057 20.6921 89.8214 22.7277 94.0616 24.7387 97.5913 27.8292 100.41 31.9988 103.253 36.1438 104.675 41.3924 104.675 47.745 104.675 56.7464 101.978 65.6249 96.5861 74.3811 91.1941 83.1125 84.7969 90.5196 77.3948 96.6022 69.9928 102.71 62.934 106.56 56.2183 108.154 57.444 115.905 59.2944 122.429 61.77 127.727 66.3532 137.439 74.6498 144.245 86.6599 148.145 92.6648 150.083 96.1084 151.493 96.9907 152.376L100.41 153.7C102.885 154.927 104.123 156.607 104.123 158.741 104.123 163.867 100.814 168.637 94.1967 173.052 87.579 177.467 80.655 179.675 73.4245 179.675Z" fill="#FFFFFF" fill-rule="evenodd" fill-opacity="1"/></g></g></g><path d="M1736.24 1221.56C1741.53 1218.03 1745.06 1215.38 1746.83 1213.62 1750.36 1209.38 1752.56 1206.46 1753.44 1204.86L1754.51 1203.54C1755.39 1201.6 1756.09 1200.19 1756.61 1199.31 1757.15 1198.42 1757.59 1196.39 1757.93 1193.2 1757.59 1189.67 1756.92 1187.37 1755.94 1186.32 1754.99 1185.27 1753.19 1184.65 1750.54 1184.48L1746.57 1188.97 1739.4 1204.86C1738.89 1205.03 1738.22 1207.6 1737.41 1212.55 1736.63 1217.48 1736.24 1220.49 1736.24 1221.56ZM1753.7 1312.95C1753.53 1312.95 1751.59 1312.63 1747.89 1311.99 1744.17 1311.38 1739.66 1309.89 1734.36 1307.51 1729.07 1305.13 1723.82 1301.33 1718.63 1296.1 1713.43 1290.9 1709.02 1283.75 1705.39 1274.65 1701.77 1265.55 1699.95 1253.94 1699.95 1239.81 1699.95 1219.16 1704.9 1199.92 1714.8 1182.09 1725.74 1162.66 1740.03 1152.95 1757.67 1152.95 1761.74 1152.95 1765.88 1153.97 1770.1 1156 1774.34 1158.02 1777.87 1161.11 1780.69 1165.28 1783.53 1169.42 1784.95 1174.67 1784.95 1181.02 1784.95 1190.02 1782.26 1198.9 1776.86 1207.66 1771.47 1216.39 1765.07 1223.8 1757.67 1229.88 1750.27 1235.99 1743.21 1239.84 1736.5 1241.43 1737.72 1249.18 1739.57 1255.71 1742.05 1261 1746.63 1270.72 1754.93 1277.52 1766.94 1281.42 1772.94 1283.36 1776.39 1284.77 1777.27 1285.65L1780.69 1286.98C1783.16 1288.2 1784.4 1289.88 1784.4 1292.02 1784.4 1297.14 1781.09 1301.91 1774.47 1306.33 1767.86 1310.74 1760.93 1312.95 1753.7 1312.95Z" fill="#FFFFFF" fill-rule="evenodd" fill-opacity="1"/><g clip-path="url(#clip26)" filter="url(#fx9)" transform="translate(1811 1145)"><g><g><path d="M57.3604 147.899C58.5886 147.702 59.6441 147.604 60.5286 147.604 61.4127 147.604 61.9409 147.48 62.1127 147.234 62.3091 146.963 62.6283 146.742 63.0705 146.569 63.5124 146.372 65.5878 145.215 69.2961 143.097 70.0084 142.752 72.3907 140.449 76.443 136.189 81.0355 130.5 83.8719 126.424 84.9528 123.961 85.6402 122.532 86.1683 121.732 86.5369 121.56 87.421 119.245 87.8629 116.314 87.8629 112.767 87.8629 109.049 87.4578 105.367 86.6474 101.721 85.8615 98.1016 84.9405 95.7619 83.8842 94.7026 82.1163 93.816 79.9059 93.3726 77.2532 93.3726 73.8889 93.3726 70.5243 93.7668 67.1593 94.5549 63.795 95.343 61.6705 96.0077 60.7864 96.55 50.0048 106.302 44.6138 116.412 44.6138 126.879 44.6138 130.426 44.9702 133.344 45.6824 135.634 46.7384 139.55 47.8434 142.345 48.998 144.02 50.1521 145.719 52.9395 147.013 57.36 147.899ZM114.387 177.674C106.601 177.674 101.997 173.328 100.572 164.634 100.057 160.915 99.6145 154.45 99.2463 145.239 84.0441 163.661 67.8716 172.872 50.7294 172.872 42.4037 172.872 35.1463 169.769 28.9575 163.563 22.7684 157.356 19.6738 147.961 19.6738 135.376 19.6738 118.703 26.133 103.323 39.0514 89.2354 51.9694 75.1482 65.7597 68.1048 80.4214 68.1048 84.4983 68.1048 88.747 68.9913 93.1676 70.7645 91.7434 66.5039 89.9748 62.6868 87.8629 59.3124 83.4423 53.279 80.2986 49.7323 78.4322 48.6734 76.5903 47.6145 74.5153 46.5552 72.2066 45.4963 64.5929 41.95 60.7864 38.1325 60.7864 34.0442 60.7864 31.0398 62.4319 27.8874 65.7228 24.5872 68.9893 21.3117 73.4467 19.6739 79.0954 19.6739 89.877 19.6739 98.804 23.356 105.877 30.7198 112.95 38.0833 118.574 47.3929 122.749 58.6477 126.9 69.9025 129.994 81.6993 132.033 94.038 134.047 106.352 135.324 117.828 135.864 128.468 136.404 139.107 136.674 147.173 136.674 152.665 136.674 159.24 135.164 164.338 132.143 167.959 129.147 171.603 125.881 174.128 122.344 175.532 118.808 176.96 116.155 177.674 114.387 177.674Z" fill="#FFFFFF" fill-rule="evenodd" fill-opacity="1"/></g></g></g><path d="M1858.64 1283.18C1859.87 1282.98 1860.92 1282.88 1861.81 1282.88 1862.69 1282.88 1863.22 1282.76 1863.39 1282.51 1863.59 1282.24 1863.91 1282.02 1864.35 1281.85 1864.79 1281.65 1866.87 1280.49 1870.57 1278.37 1871.29 1278.03 1873.67 1275.73 1877.72 1271.47 1882.31 1265.78 1885.15 1261.7 1886.23 1259.24 1886.92 1257.81 1887.45 1257.01 1887.81 1256.84 1888.7 1254.52 1889.14 1251.59 1889.14 1248.04 1889.14 1244.33 1888.74 1240.64 1887.92 1237 1887.14 1233.38 1886.22 1231.04 1885.16 1229.98 1883.39 1229.09 1881.18 1228.65 1878.53 1228.65 1875.17 1228.65 1871.8 1229.04 1868.44 1229.83 1865.07 1230.62 1862.95 1231.28 1862.06 1231.83 1851.28 1241.58 1845.89 1251.69 1845.89 1262.16 1845.89 1265.7 1846.25 1268.62 1846.96 1270.91 1848.02 1274.83 1849.12 1277.62 1850.28 1279.3 1851.43 1281 1854.22 1282.29 1858.64 1283.18ZM1915.66 1312.95C1907.88 1312.95 1903.27 1308.6 1901.85 1299.91 1901.33 1296.19 1900.89 1289.73 1900.52 1280.52 1885.32 1298.94 1869.15 1308.15 1852.01 1308.15 1843.68 1308.15 1836.42 1305.05 1830.23 1298.84 1824.05 1292.63 1820.95 1283.24 1820.95 1270.65 1820.95 1253.98 1827.41 1238.6 1840.33 1224.51 1853.25 1210.43 1867.04 1203.38 1881.7 1203.38 1885.78 1203.38 1890.02 1204.27 1894.44 1206.04 1893.02 1201.78 1891.25 1197.96 1889.14 1194.59 1884.72 1188.56 1881.58 1185.01 1879.71 1183.95 1877.87 1182.89 1875.79 1181.83 1873.48 1180.77 1865.87 1177.23 1862.06 1173.41 1862.06 1169.32 1862.06 1166.32 1863.71 1163.16 1867 1159.86 1870.27 1156.59 1874.72 1154.95 1880.37 1154.95 1891.15 1154.95 1900.08 1158.63 1907.15 1166 1914.23 1173.36 1919.85 1182.67 1924.03 1193.92 1928.18 1205.18 1931.27 1216.98 1933.31 1229.32 1935.32 1241.63 1936.6 1253.11 1937.14 1263.74 1937.68 1274.38 1937.95 1282.45 1937.95 1287.94 1937.95 1294.52 1936.44 1299.62 1933.42 1303.24 1930.42 1306.88 1927.16 1309.4 1923.62 1310.81 1920.08 1312.24 1917.43 1312.95 1915.66 1312.95Z" fill="#FFFFFF" fill-rule="evenodd" fill-opacity="1"/><g clip-path="url(#clip27)" filter="url(#fx10)" transform="translate(1978 1138)"><g><g><path d="M38.2644 182.675 35.6087 182.675C31.3546 182.675 27.8997 178.619 25.2437 170.509 21.5307 158.503 19.6739 135.741 19.6739 102.222 19.6739 88.4763 20.2887 74.7182 21.5184 60.9482 22.9444 44.0174 25.8708 33.0769 30.297 28.1278 35.2396 22.4922 40.4527 19.6743 45.9365 19.6743 48.0756 19.6743 50.2028 20.2012 52.3174 21.2547L52.0593 21.2547C52.9449 21.5979 53.9653 22.3943 55.1209 23.6437 56.2765 24.869 57.0266 26.1919 57.371 27.6131 58.4283 31.1413 58.9568 33.6038 58.9568 35.0006 58.9568 36.5932 58.7847 38.3573 58.4406 40.2929 57.8991 43.6497 57.1863 51.8579 56.3011 64.9173 58.2436 61.3891 60.4569 57.7751 62.9405 54.0751 71.7931 41.1872 81.3586 34.743 91.6372 34.743 96.4078 34.743 100.613 36.201 104.252 39.1166 107.867 42.0325 109.674 45.426 109.674 49.2971 109.674 52.1151 108.567 55.2021 106.355 58.5589 104.141 61.9156 101.092 63.5944 97.207 63.5944 95.2645 63.5944 93.7152 62.9324 92.5593 61.6095 91.4037 60.2862 90.3833 58.4731 89.498 56.1699L85.7724 54.0751C85.4283 54.0751 85.0347 54.1608 84.5922 54.3323 84.1498 54.5037 83.7562 54.7241 83.4121 54.9939 83.043 55.2633 82.5022 55.7045 81.7887 56.3168 81.1005 56.9295 80.3996 57.6768 79.6864 58.5589 71.547 68.2618 66.0144 78.0134 63.088 87.8143 60.1615 97.5904 58.0838 109.891 56.8545 124.714 57.5427 131.771 58.1084 137.284 58.5512 141.253 58.9937 145.223 59.4364 148.494 59.8789 151.066 60.3213 153.615 60.7272 156.481 61.0963 159.667 61.0963 164.763 58.883 169.872 54.4569 174.993 50.0308 180.114 44.633 182.674 38.2644 182.674Z" fill="#FFFFFF" fill-rule="evenodd" fill-opacity="1"/></g></g></g><path d="M2006.54 1310.95 2003.89 1310.95C1999.63 1310.95 1996.18 1306.9 1993.52 1298.79 1989.81 1286.78 1987.95 1264.02 1987.95 1230.5 1987.95 1216.75 1988.57 1203 1989.8 1189.23 1991.22 1172.29 1994.15 1161.35 1998.57 1156.41 2003.52 1150.77 2008.73 1147.95 2014.21 1147.95 2016.35 1147.95 2018.48 1148.48 2020.59 1149.53L2020.34 1149.53C2021.22 1149.88 2022.24 1150.67 2023.4 1151.92 2024.55 1153.15 2025.3 1154.47 2025.65 1155.89 2026.71 1159.42 2027.23 1161.88 2027.23 1163.28 2027.23 1164.87 2027.06 1166.63 2026.72 1168.57 2026.18 1171.93 2025.46 1180.14 2024.58 1193.19 2026.52 1189.67 2028.73 1186.05 2031.22 1182.35 2040.07 1169.46 2049.64 1163.02 2059.91 1163.02 2064.69 1163.02 2068.89 1164.48 2072.53 1167.39 2076.14 1170.31 2077.95 1173.7 2077.95 1177.57 2077.95 1180.39 2076.84 1183.48 2074.63 1186.84 2072.42 1190.19 2069.37 1191.87 2065.48 1191.87 2063.54 1191.87 2061.99 1191.21 2060.84 1189.89 2059.68 1188.56 2058.66 1186.75 2057.78 1184.45L2054.05 1182.35C2053.71 1182.35 2053.31 1182.44 2052.87 1182.61 2052.43 1182.78 2052.03 1183 2051.69 1183.27 2051.32 1183.54 2050.78 1183.98 2050.07 1184.59 2049.38 1185.21 2048.68 1185.95 2047.96 1186.84 2039.82 1196.54 2034.29 1206.29 2031.37 1216.09 2028.44 1225.87 2026.36 1238.17 2025.13 1252.99 2025.82 1260.05 2026.39 1265.56 2026.83 1269.53 2027.27 1273.5 2027.71 1276.77 2028.16 1279.34 2028.6 1281.89 2029 1284.76 2029.37 1287.94 2029.37 1293.04 2027.16 1298.15 2022.73 1303.27 2018.31 1308.39 2012.91 1310.95 2006.54 1310.95Z" fill="#FFFFFF" fill-rule="evenodd" fill-opacity="1"/><g clip-path="url(#clip28)" filter="url(#fx11)" transform="translate(2176 1096)"><g><g><path d="M94.847 190.519C103.704 179.711 108.132 149.107 108.132 98.7038L107.874 93.3984 108.132 89.1614C107.788 88.8177 107.615 88.2035 107.615 87.3193 107.615 83.4137 105.93 77.0396 102.559 68.1972 101.132 63.7761 99.0044 61.4794 96.1753 61.3071 93.1736 63.2475 89.3727 70.5921 84.7719 83.34 75.5459 108.271 67.747 135.24 61.3748 164.249L67.7593 170.881C74.6726 178.668 83.7018 185.213 94.8466 190.519ZM38.2736 245.674C36.3052 245.674 34.2633 245.146 32.1474 244.09 23.8317 240.381 19.6738 216.236 19.6738 171.655 19.6738 141.787 22.7739 110.752 28.9736 78.5502 36.5757 39.2995 47.0197 19.6738 60.3051 19.6738 63.1343 19.6738 65.2625 20.8158 66.6892 23.1002 68.1163 25.4092 68.8298 28.1605 68.8298 31.3533 68.8298 36.1186 67.6733 42.6523 65.3605 50.9541 61.8179 63.3338 58.4473 82.7876 55.2489 109.315 58.9887 96.4198 62.9372 84.6175 67.095 73.9081 71.2532 63.2233 76.2595 54.651 82.1152 48.191 87.946 41.7312 95.4744 38.5009 104.7 38.5009 117.444 38.5009 127.359 49.0261 134.445 70.0762 139.931 85.9928 142.674 99.5144 142.674 110.642 142.674 139.478 139.845 162.296 134.186 179.098 128.503 195.898 121.331 207.885 112.671 215.057 103.987 222.205 95.1301 225.779 86.1009 225.779 78.302 225.779 69.8876 222.868 60.8588 217.047L61.3756 223.126C61.3756 230.028 58.8046 235.518 53.6624 239.595 48.5205 243.648 43.3909 245.674 38.2736 245.674Z" fill="#FFFFFF" fill-rule="evenodd" fill-opacity="1"/></g></g></g><path d="M2261.12 1276.8C2269.98 1265.99 2274.41 1235.38 2274.41 1184.98L2274.15 1179.68 2274.41 1175.44C2274.07 1175.09 2273.89 1174.48 2273.89 1173.6 2273.89 1169.69 2272.21 1163.32 2268.84 1154.47 2267.41 1150.05 2265.28 1147.76 2262.45 1147.58 2259.45 1149.52 2255.65 1156.87 2251.05 1169.62 2241.82 1194.55 2234.02 1221.52 2227.65 1250.53L2234.04 1257.16C2240.95 1264.94 2249.98 1271.49 2261.12 1276.8ZM2204.55 1331.95C2202.58 1331.95 2200.54 1331.42 2198.42 1330.37 2190.11 1326.66 2185.95 1302.51 2185.95 1257.93 2185.95 1228.06 2189.05 1197.03 2195.25 1164.83 2202.85 1125.58 2213.3 1105.95 2226.58 1105.95 2229.41 1105.95 2231.54 1107.09 2232.97 1109.38 2234.39 1111.69 2235.11 1114.44 2235.11 1117.63 2235.11 1122.4 2233.95 1128.93 2231.64 1137.23 2228.1 1149.61 2224.72 1169.06 2221.53 1195.59 2225.27 1182.7 2229.21 1170.89 2233.37 1160.19 2237.53 1149.5 2242.54 1140.93 2248.39 1134.47 2254.22 1128.01 2261.75 1124.78 2270.98 1124.78 2283.72 1124.78 2293.64 1135.3 2300.72 1156.35 2306.21 1172.27 2308.95 1185.79 2308.95 1196.92 2308.95 1225.76 2306.12 1248.57 2300.46 1265.38 2294.78 1282.18 2287.61 1294.16 2278.95 1301.33 2270.26 1308.48 2261.41 1312.06 2252.38 1312.06 2244.58 1312.06 2236.17 1309.15 2227.14 1303.32L2227.65 1309.4C2227.65 1316.31 2225.08 1321.8 2219.94 1325.87 2214.8 1329.93 2209.67 1331.95 2204.55 1331.95Z" fill="#FFFFFF" fill-rule="evenodd" fill-opacity="1"/><g clip-path="url(#clip29)" filter="url(#fx12)" transform="translate(2351 1107)"><g><g><path d="M38.5622 222.674C36.3883 222.674 34.1399 222.233 31.8161 221.349 23.7208 218.184 19.6731 195.399 19.6731 152.995 19.6731 130.37 21.1972 113.671 24.2456 102.899L28.2933 95.4633C32.4405 88.5924 37.925 85.1569 44.7459 85.1569 53.5659 85.1569 57.9757 90.8991 57.9757 102.384 57.9757 105.721 57.7131 109.782 57.1887 114.567 56.464 121.635 56.1019 130.027 56.1019 139.744 56.1019 152.824 57.0014 167.314 58.7999 183.215 59.6997 188.86 60.1496 194.503 60.1496 200.147 60.1496 205.644 58.7999 210.024 56.1019 213.288 53.4032 216.552 50.3424 218.932 46.9198 220.429 43.4968 221.926 40.7107 222.674 38.5622 222.674ZM37.2128 65.7955C28.0435 65.7955 23.4585 61.2927 23.4585 52.2864 23.4585 38.3239 27.3189 28.7779 35.0393 23.6493 39.3617 20.9991 43.6841 19.6738 48.0065 19.6738 56.4516 19.6738 60.6737 23.8336 60.6737 32.152 60.6737 33.9188 60.4118 36.3854 59.887 39.5507 59.887 40.6058 59.9744 41.4033 60.1492 41.9433 60.1492 49.1825 57.4884 54.9734 52.1666 59.3167 46.8695 63.6359 41.8849 65.7952 37.2128 65.7952Z" fill="#FFFFFF" fill-rule="evenodd" fill-opacity="1"/></g></g></g><path d="M2379.84 1319.95C2377.67 1319.95 2375.42 1319.51 2373.09 1318.63 2365 1315.46 2360.95 1292.68 2360.95 1250.27 2360.95 1227.65 2362.47 1210.95 2365.52 1200.18L2369.57 1192.74C2373.72 1185.87 2379.2 1182.43 2386.02 1182.43 2394.84 1182.43 2399.25 1188.18 2399.25 1199.66 2399.25 1203 2398.99 1207.06 2398.47 1211.84 2397.74 1218.91 2397.38 1227.3 2397.38 1237.02 2397.38 1250.1 2398.28 1264.59 2400.08 1280.49 2400.98 1286.14 2401.43 1291.78 2401.43 1297.42 2401.43 1302.92 2400.08 1307.3 2397.38 1310.57 2394.68 1313.83 2391.62 1316.21 2388.2 1317.71 2384.77 1319.2 2381.99 1319.95 2379.84 1319.95ZM2378.49 1163.07C2369.32 1163.07 2364.74 1158.57 2364.74 1149.56 2364.74 1135.6 2368.6 1126.06 2376.32 1120.93 2380.64 1118.28 2384.96 1116.95 2389.28 1116.95 2397.73 1116.95 2401.95 1121.11 2401.95 1129.43 2401.95 1131.2 2401.69 1133.66 2401.16 1136.83 2401.16 1137.88 2401.25 1138.68 2401.43 1139.22 2401.43 1146.46 2398.77 1152.25 2393.44 1156.59 2388.15 1160.91 2383.16 1163.07 2378.49 1163.07Z" fill="#FFFFFF" fill-rule="evenodd" fill-opacity="1"/><g clip-path="url(#clip30)" filter="url(#fx13)" transform="translate(2441 1149)"><g><g><path d="M57.3602 147.088C58.5887 146.892 59.6443 146.794 60.5284 146.794 61.4125 146.794 61.941 146.672 62.1125 146.427 62.3089 146.158 62.6284 145.938 63.0706 145.766 63.5125 145.57 65.5876 144.42 69.2962 142.316 70.0085 141.973 72.3908 139.685 76.4428 135.451 81.0352 129.798 83.872 125.748 84.9529 123.301 85.6403 121.882 86.1684 121.086 86.5367 120.915 87.4208 118.615 87.863 115.702 87.863 112.178 87.863 108.483 87.4576 104.824 86.6471 101.203 85.8612 97.6055 84.9403 95.2806 83.8843 94.2284 82.1161 93.347 79.906 92.9067 77.2533 92.9067 73.8887 92.9067 70.524 93.2981 67.1594 94.0812 63.7948 94.8644 61.6706 95.5252 60.7865 96.0637 50.0049 105.754 44.614 115.8 44.614 126.201 44.614 129.725 44.9699 132.624 45.6822 134.9 46.7385 138.792 47.8436 141.569 48.9981 143.233 50.1522 144.922 52.9396 146.207 57.3602 147.088ZM114.387 176.674C106.602 176.674 101.997 172.355 100.572 163.717 100.057 160.021 99.6146 153.597 99.246 144.445 84.0439 162.75 67.8717 171.902 50.7291 171.902 42.4039 171.902 35.1465 168.819 28.9577 162.652 22.7685 156.485 19.6739 147.149 19.6739 134.644 19.6739 118.076 26.1331 102.794 39.0515 88.7954 51.9696 74.7974 65.7594 67.7985 80.4215 67.7985 84.4984 67.7985 88.7471 68.6795 93.1681 70.4415 91.7435 66.2078 89.9749 62.4149 87.863 59.0619 83.4424 53.0667 80.2988 49.5424 78.4323 48.4902 76.5905 47.438 74.515 46.3855 72.2067 45.3333 64.593 41.8094 60.7865 38.0164 60.7865 33.954 60.7865 30.9683 62.4316 27.8358 65.7226 24.5565 68.989 21.3017 73.4468 19.6743 79.0955 19.6743 89.8771 19.6743 98.8042 23.3331 105.877 30.6503 112.95 37.9675 118.574 47.2179 122.749 58.4014 126.9 69.5849 129.994 81.307 132.033 93.5676 134.047 105.804 135.324 117.207 135.864 127.779 136.404 138.351 136.675 146.366 136.675 151.823 136.675 158.357 135.164 163.423 132.143 167.02 129.147 170.642 125.881 173.151 122.344 174.545 118.808 175.965 116.155 176.674 114.387 176.674Z" fill="#FFFFFF" fill-rule="evenodd" fill-opacity="1"/></g></g></g><path d="M2488.64 1286.36C2489.87 1286.17 2490.92 1286.07 2491.81 1286.07 2492.69 1286.07 2493.22 1285.95 2493.39 1285.7 2493.59 1285.43 2493.91 1285.21 2494.35 1285.04 2494.79 1284.85 2496.86 1283.7 2500.57 1281.59 2501.29 1281.25 2503.67 1278.96 2507.72 1274.73 2512.31 1269.08 2515.15 1265.03 2516.23 1262.58 2516.92 1261.16 2517.45 1260.36 2517.81 1260.19 2518.7 1257.89 2519.14 1254.98 2519.14 1251.46 2519.14 1247.76 2518.73 1244.1 2517.92 1240.48 2517.14 1236.88 2516.22 1234.56 2515.16 1233.51 2513.39 1232.62 2511.18 1232.18 2508.53 1232.18 2505.17 1232.18 2501.8 1232.58 2498.44 1233.36 2495.07 1234.14 2492.95 1234.8 2492.06 1235.34 2481.28 1245.03 2475.89 1255.08 2475.89 1265.48 2475.89 1269 2476.25 1271.9 2476.96 1274.18 2478.02 1278.07 2479.12 1280.85 2480.28 1282.51 2481.43 1284.2 2484.22 1285.48 2488.64 1286.36ZM2545.66 1315.95C2537.88 1315.95 2533.27 1311.63 2531.85 1302.99 2531.33 1299.3 2530.89 1292.87 2530.52 1283.72 2515.32 1302.03 2499.15 1311.18 2482.01 1311.18 2473.68 1311.18 2466.42 1308.1 2460.24 1301.93 2454.05 1295.76 2450.95 1286.43 2450.95 1273.92 2450.95 1257.35 2457.41 1242.07 2470.33 1228.07 2483.25 1214.07 2497.04 1207.08 2511.7 1207.08 2515.78 1207.08 2520.02 1207.96 2524.45 1209.72 2523.02 1205.49 2521.25 1201.69 2519.14 1198.34 2514.72 1192.34 2511.58 1188.82 2509.71 1187.77 2507.87 1186.72 2505.79 1185.66 2503.48 1184.61 2495.87 1181.09 2492.06 1177.29 2492.06 1173.23 2492.06 1170.25 2493.71 1167.11 2497 1163.83 2500.27 1160.58 2504.72 1158.95 2510.37 1158.95 2521.15 1158.95 2530.08 1162.61 2537.15 1169.93 2544.23 1177.24 2549.85 1186.5 2554.03 1197.68 2558.18 1208.86 2561.27 1220.58 2563.31 1232.84 2565.32 1245.08 2566.6 1256.48 2567.14 1267.06 2567.68 1277.63 2567.95 1285.64 2567.95 1291.1 2567.95 1297.63 2566.44 1302.7 2563.42 1306.3 2560.42 1309.92 2557.16 1312.43 2553.62 1313.82 2550.09 1315.24 2547.43 1315.95 2545.66 1315.95Z" fill="#FFFFFF" fill-rule="evenodd" fill-opacity="1"/><g clip-path="url(#clip31)" filter="url(#fx14)" transform="translate(2612 1149)"><g><g><path d="M38.2645 183.674 35.6085 183.674C31.3544 183.674 27.8999 179.594 25.2439 171.434 21.5309 159.355 19.6741 136.453 19.6741 102.728 19.6741 88.8981 20.289 75.0556 21.5183 61.2011 22.9446 44.1664 25.871 33.1588 30.2972 28.1794 35.2398 22.5092 40.4528 19.674 45.9366 19.674 48.0757 19.674 50.2026 20.2041 52.3175 21.2641L52.0594 21.2641C52.9446 21.6094 53.9654 22.4107 55.121 23.6678 56.2766 24.9006 57.0267 26.2316 57.3708 27.6615 58.4284 31.2114 58.9569 33.689 58.9569 35.0943 58.9569 36.6967 58.7848 38.4717 58.4403 40.4191 57.8992 43.7965 57.1861 52.0551 56.3012 65.1946 58.2437 61.6447 60.4569 58.0086 62.9406 54.2859 71.7928 41.3189 81.3586 34.8352 91.6371 34.8352 96.4077 34.8352 100.613 36.3021 104.252 39.2355 107.866 42.1694 109.674 45.5837 109.674 49.4785 109.674 52.3138 108.567 55.4198 106.354 58.7971 104.141 62.1745 101.092 63.8635 97.2069 63.8635 95.2641 63.8635 93.7152 63.1975 92.5592 61.8665 91.4036 60.5351 90.3832 58.7109 89.4976 56.3935L85.7724 54.2859C85.4283 54.2859 85.0347 54.3721 84.5919 54.5446 84.1494 54.7171 83.7562 54.9389 83.4117 55.2103 83.043 55.4814 82.5022 55.9253 81.7887 56.5413 81.1005 57.1577 80.3996 57.9097 79.6864 58.7971 71.547 68.5596 66.0141 78.371 63.088 88.2321 60.1616 98.0681 58.0839 110.444 56.8546 125.358 57.5428 132.459 58.1082 138.005 58.5513 141.999 58.9937 145.993 59.4365 149.284 59.879 151.872 60.3214 154.436 60.7273 157.32 61.0964 160.525 61.0964 165.653 58.8828 170.793 54.4566 175.945 50.0305 181.098 44.6332 183.674 38.2642 183.674Z" fill="#FFFFFF" fill-rule="evenodd" fill-opacity="1"/></g></g></g><path d="M2640.54 1322.95 2637.89 1322.95C2633.63 1322.95 2630.18 1318.87 2627.52 1310.71 2623.81 1298.63 2621.95 1275.73 2621.95 1242.01 2621.95 1228.18 2622.57 1214.33 2623.8 1200.48 2625.22 1183.44 2628.15 1172.44 2632.57 1167.46 2637.52 1161.79 2642.73 1158.95 2648.21 1158.95 2650.35 1158.95 2652.48 1159.48 2654.59 1160.54L2654.34 1160.54C2655.22 1160.89 2656.24 1161.69 2657.4 1162.94 2658.55 1164.18 2659.3 1165.51 2659.65 1166.94 2660.71 1170.49 2661.23 1172.97 2661.23 1174.37 2661.23 1175.97 2661.06 1177.75 2660.72 1179.7 2660.18 1183.07 2659.46 1191.33 2658.58 1204.47 2660.52 1200.92 2662.73 1197.29 2665.22 1193.56 2674.07 1180.6 2683.64 1174.11 2693.91 1174.11 2698.69 1174.11 2702.89 1175.58 2706.53 1178.51 2710.14 1181.45 2711.95 1184.86 2711.95 1188.76 2711.95 1191.59 2710.84 1194.7 2708.63 1198.07 2706.42 1201.45 2703.37 1203.14 2699.48 1203.14 2697.54 1203.14 2695.99 1202.47 2694.84 1201.14 2693.68 1199.81 2692.66 1197.99 2691.77 1195.67L2688.05 1193.56C2687.71 1193.56 2687.31 1193.65 2686.87 1193.82 2686.43 1193.99 2686.03 1194.22 2685.69 1194.49 2685.32 1194.76 2684.78 1195.2 2684.07 1195.82 2683.38 1196.43 2682.68 1197.19 2681.96 1198.07 2673.82 1207.84 2668.29 1217.65 2665.37 1227.51 2662.44 1237.35 2660.36 1249.72 2659.13 1264.64 2659.82 1271.74 2660.39 1277.28 2660.83 1281.28 2661.27 1285.27 2661.71 1288.56 2662.16 1291.15 2662.6 1293.71 2663 1296.6 2663.37 1299.8 2663.37 1304.93 2661.16 1310.07 2656.73 1315.22 2652.31 1320.38 2646.91 1322.95 2640.54 1322.95Z" fill="#FFFFFF" fill-rule="evenodd" fill-opacity="1"/><g clip-path="url(#clip32)" filter="url(#fx15)" transform="translate(2733 1164)"><g><g><path d="M71.2628 218.674C65.059 218.674 59.3354 217.262 54.0914 214.436 48.8719 211.587 44.7114 208.577 41.6096 205.408 38.5076 202.214 36.9569 200.003 36.9569 198.774 36.9569 197.349 37.7075 195.494 39.2093 193.209 40.7111 190.9 42.9758 189.745 46.0044 189.745 54.1529 192.227 60.1721 193.467 64.062 193.467 66.5485 193.467 68.9489 193.381 71.2628 193.209 73.5524 193.013 74.8816 192.915 75.2511 192.915 76.3096 192.399 77.1959 191.784 77.9099 191.072L82.415 184.697 85.3325 177.548C89.247 167.45 92.5332 151.973 95.1924 131.114 95.0201 131.114 94.9336 131.2 94.9336 131.372 93.6782 132.969 91.241 135.401 87.6217 138.669 83.9787 141.936 79.3256 145.032 73.6628 147.955 67.9762 150.879 61.5013 152.341 54.239 152.341 50.1519 152.341 46.6069 151.628 43.6036 150.203 27.6507 144.553 19.674 131.372 19.674 110.661 19.674 89.4348 22.4193 69.8908 27.9094 52.03 34.655 30.4593 43.7886 19.6739 55.3099 19.6739 57.7964 19.6739 60.3198 20.6443 62.8801 22.585 65.4404 24.5261 66.7204 27.8919 66.7204 32.6824 66.7204 36.5643 66.1052 39.9178 64.8745 42.7434 59.0148 63.798 55.827 82.8993 55.3099 100.048 55.3099 112.97 57.3411 121.815 61.4029 126.581L64.0617 127.908C66.7204 127.908 69.7364 126.581 73.1091 123.928 77.9099 119.702 82.255 114.224 86.1449 107.492 90.5762 98.3036 92.8781 92.6406 93.0504 90.503 94.1089 87.1372 95.1797 82.2731 96.2632 75.9098L95.4504 54.6833C95.4504 42.4729 97.4936 33.7146 101.581 28.4076 105.643 23.1011 110.246 20.4478 115.392 20.4478 122.654 20.4478 127.357 25.4106 129.498 35.3361 131.616 45.2366 132.674 62.2993 132.674 86.5229 132.674 113.597 130.902 135.352 127.357 151.788 121.325 179.918 112.733 198.676 101.581 208.06 97.6666 211.427 95.0936 213.331 93.8624 213.773 92.6071 214.215 91.1425 214.694 89.4685 215.21 87.794 215.751 85.5293 216.463 82.6734 217.347 79.8427 218.232 76.0386 218.674 71.2628 218.674Z" fill="#FFFFFF" fill-rule="evenodd" fill-opacity="1"/></g></g></g><path d="M2794.54 1372.95C2788.34 1372.95 2782.61 1371.54 2777.37 1368.71 2772.15 1365.86 2767.99 1362.85 2764.89 1359.68 2761.78 1356.49 2760.23 1354.28 2760.23 1353.05 2760.23 1351.63 2760.98 1349.77 2762.49 1347.49 2763.99 1345.18 2766.25 1344.02 2769.28 1344.02 2777.43 1346.5 2783.45 1347.74 2787.34 1347.74 2789.83 1347.74 2792.23 1347.66 2794.54 1347.49 2796.83 1347.29 2798.16 1347.19 2798.53 1347.19 2799.59 1346.68 2800.47 1346.06 2801.19 1345.35L2805.69 1338.97 2808.61 1331.82C2812.52 1321.73 2815.81 1306.25 2818.47 1285.39 2818.3 1285.39 2818.21 1285.48 2818.21 1285.65 2816.96 1287.25 2814.52 1289.68 2810.9 1292.95 2807.26 1296.21 2802.6 1299.31 2796.94 1302.23 2791.25 1305.16 2784.78 1306.62 2777.52 1306.62 2773.43 1306.62 2769.88 1305.91 2766.88 1304.48 2750.93 1298.83 2742.95 1285.65 2742.95 1264.94 2742.95 1243.71 2745.7 1224.17 2751.19 1206.31 2757.93 1184.74 2767.07 1173.95 2778.59 1173.95 2781.07 1173.95 2783.6 1174.92 2786.16 1176.86 2788.72 1178.8 2790 1182.17 2790 1186.96 2790 1190.84 2789.38 1194.2 2788.15 1197.02 2782.29 1218.08 2779.1 1237.18 2778.59 1254.33 2778.59 1267.25 2780.62 1276.09 2784.68 1280.86L2787.34 1282.19C2790 1282.19 2793.01 1280.86 2796.39 1278.2 2801.19 1273.98 2805.53 1268.5 2809.42 1261.77 2813.85 1252.58 2816.16 1246.92 2816.33 1244.78 2817.39 1241.41 2818.46 1236.55 2819.54 1230.19L2818.73 1208.96C2818.73 1196.75 2820.77 1187.99 2824.86 1182.68 2828.92 1177.38 2833.52 1174.73 2838.67 1174.73 2845.93 1174.73 2850.63 1179.69 2852.78 1189.61 2854.89 1199.51 2855.95 1216.58 2855.95 1240.8 2855.95 1267.87 2854.18 1289.63 2850.63 1306.07 2844.6 1334.2 2836.01 1352.95 2824.86 1362.34 2820.94 1365.7 2818.37 1367.61 2817.14 1368.05 2815.88 1368.49 2814.42 1368.97 2812.75 1369.49 2811.07 1370.03 2808.81 1370.74 2805.95 1371.62 2803.12 1372.51 2799.32 1372.95 2794.54 1372.95Z" fill="#FFFFFF" fill-rule="evenodd" fill-opacity="1"/><path d="M1174.45 1237.45C1174.45 671.359 1633.36 212.451 2199.45 212.451 2765.54 212.451 3224.45 671.359 3224.45 1237.45 3224.45 1803.54 2765.54 2262.45 2199.45 2262.45 1633.36 2262.45 1174.45 1803.54 1174.45 1237.45Z" stroke="#FFFFFF" stroke-width="156.887" stroke-linecap="butt" stroke-linejoin="miter" stroke-miterlimit="8" stroke-opacity="1" fill="none" fill-rule="evenodd"/></g></g></svg>